<svg xmlns="http://www.w3.org/2000/svg" xmlns:xlink="http://www.w3.org/1999/xlink" width="500" zoomAndPan="magnify" viewBox="0 0 375 374.999991" height="500" preserveAspectRatio="xMidYMid meet" version="1.0"><defs><g/><clipPath id="66d3fbe11d"><path d="M 90.191406 153 L 95 153 L 95 161 L 90.191406 161 Z M 90.191406 153 " clip-rule="nonzero"/></clipPath><clipPath id="710b0cb9cb"><path d="M 109 86.644531 L 223 86.644531 L 223 172 L 109 172 Z M 109 86.644531 " clip-rule="nonzero"/></clipPath><clipPath id="5a7e706d67"><path d="M 126 95 L 246.941406 95 L 246.941406 212.582031 L 126 212.582031 Z M 126 95 " clip-rule="nonzero"/></clipPath></defs><g fill="#003459" fill-opacity="1"><g transform="translate(57.557657, 260.432285)"><g><path d="M 21.5625 -28.859375 L 21.5625 -11.253906 L 8.90625 -28.859375 L 3.296875 -28.859375 L 3.296875 0 L 9.398438 0 L 9.398438 -18.015625 L 22.46875 0 L 27.703125 0 L 27.703125 -28.859375 Z M 21.5625 -28.859375 "/></g></g></g><g fill="#003459" fill-opacity="1"><g transform="translate(96.804574, 260.432285)"><g><path d="M 9.523438 -5.773438 L 9.523438 -11.707031 L 19.539062 -11.707031 L 19.539062 -17.355469 L 9.523438 -17.355469 L 9.523438 -23.085938 L 20.613281 -23.085938 L 20.613281 -28.859375 L 3.296875 -28.859375 L 3.296875 0 L 21.066406 0 L 21.066406 -5.773438 Z M 9.523438 -5.773438 "/></g></g></g><g fill="#003459" fill-opacity="1"><g transform="translate(128.094912, 260.432285)"><g><path d="M 25.640625 0 L 16.613281 -14.882812 L 24.898438 -28.859375 L 18.058594 -28.859375 L 12.863281 -19.953125 L 7.710938 -28.859375 L 0.699219 -28.859375 L 9.109375 -15.128906 L 0.125 0 L 7.171875 0 L 12.945312 -9.894531 L 18.632812 0 Z M 25.640625 0 "/></g></g></g><g fill="#003459" fill-opacity="1"><g transform="translate(162.10615, 260.432285)"><g><path d="M 23.167969 -28.859375 L 0.867188 -28.859375 L 0.867188 -23.046875 L 8.90625 -23.046875 L 8.90625 0 L 15.128906 0 L 15.128906 -23.046875 L 23.167969 -23.046875 Z M 23.167969 -28.859375 "/></g></g></g><g fill="#003459" fill-opacity="1"><g transform="translate(194.427134, 260.432285)"><g><path d="M 12.863281 0.578125 C 18.839844 0.578125 23.789062 -2.433594 23.789062 -8.65625 C 23.789062 -15.128906 18.261719 -16.492188 13.894531 -17.601562 C 10.800781 -18.34375 8.328125 -18.964844 8.328125 -20.984375 C 8.328125 -22.878906 10.347656 -23.746094 12.367188 -23.746094 C 14.71875 -23.746094 16.777344 -22.589844 16.777344 -20.078125 L 22.921875 -20.078125 C 22.921875 -25.847656 19.171875 -29.394531 12.53125 -29.394531 C 6.144531 -29.394531 2.0625 -26.261719 2.0625 -20.738281 C 2.0625 -14.511719 7.339844 -13.234375 11.707031 -12.160156 C 14.839844 -11.460938 17.480469 -10.84375 17.480469 -8.574219 C 17.480469 -6.429688 15.171875 -5.195312 12.820312 -5.195312 C 10.265625 -5.195312 7.957031 -6.554688 7.957031 -9.316406 L 1.648438 -9.316406 C 1.648438 -3.132812 6.226562 0.578125 12.863281 0.578125 Z M 12.863281 0.578125 "/></g></g></g><g fill="#003459" fill-opacity="1"><g transform="translate(228.191011, 260.432285)"><g><path d="M 23.167969 -28.859375 L 0.867188 -28.859375 L 0.867188 -23.046875 L 8.90625 -23.046875 L 8.90625 0 L 15.128906 0 L 15.128906 -23.046875 L 23.167969 -23.046875 Z M 23.167969 -28.859375 "/></g></g></g><g fill="#003459" fill-opacity="1"><g transform="translate(260.512003, 260.432285)"><g><path d="M 9.523438 -5.773438 L 9.523438 -11.707031 L 19.539062 -11.707031 L 19.539062 -17.355469 L 9.523438 -17.355469 L 9.523438 -23.085938 L 20.613281 -23.085938 L 20.613281 -28.859375 L 3.296875 -28.859375 L 3.296875 0 L 21.066406 0 L 21.066406 -5.773438 Z M 9.523438 -5.773438 "/></g></g></g><g fill="#003459" fill-opacity="1"><g transform="translate(291.802333, 260.432285)"><g><path d="M 14.386719 -28.859375 L 3.296875 -28.859375 L 3.296875 0 L 9.523438 0 L 9.523438 -8.988281 L 14.386719 -8.988281 C 20.199219 -8.988281 24.570312 -13.234375 24.570312 -18.921875 C 24.570312 -24.613281 20.160156 -28.859375 14.386719 -28.859375 Z M 14.097656 -14.757812 L 9.523438 -14.757812 L 9.523438 -23.046875 L 14.097656 -23.046875 C 16.574219 -23.046875 18.261719 -21.3125 18.261719 -18.921875 C 18.261719 -16.53125 16.574219 -14.757812 14.097656 -14.757812 Z M 14.097656 -14.757812 "/></g></g></g><g fill="#0097b2" fill-opacity="1"><g transform="translate(104.587841, 285.782676)"><g><path d="M 4.921875 0.125 C 4.085938 0.125 3.332031 -0.0546875 2.65625 -0.421875 C 1.988281 -0.785156 1.460938 -1.289062 1.078125 -1.9375 C 0.703125 -2.582031 0.515625 -3.3125 0.515625 -4.125 C 0.515625 -4.925781 0.707031 -5.648438 1.09375 -6.296875 C 1.476562 -6.941406 2.003906 -7.445312 2.671875 -7.8125 C 3.347656 -8.175781 4.101562 -8.359375 4.9375 -8.359375 C 5.601562 -8.359375 6.210938 -8.238281 6.765625 -8 C 7.328125 -7.757812 7.800781 -7.421875 8.1875 -6.984375 L 7.203125 -6.046875 C 6.609375 -6.691406 5.875 -7.015625 5 -7.015625 C 4.4375 -7.015625 3.929688 -6.890625 3.484375 -6.640625 C 3.035156 -6.390625 2.6875 -6.046875 2.4375 -5.609375 C 2.1875 -5.171875 2.0625 -4.675781 2.0625 -4.125 C 2.0625 -3.5625 2.1875 -3.0625 2.4375 -2.625 C 2.6875 -2.1875 3.035156 -1.84375 3.484375 -1.59375 C 3.929688 -1.34375 4.4375 -1.21875 5 -1.21875 C 5.875 -1.21875 6.609375 -1.546875 7.203125 -2.203125 L 8.1875 -1.265625 C 7.800781 -0.816406 7.328125 -0.472656 6.765625 -0.234375 C 6.210938 0.00390625 5.597656 0.125 4.921875 0.125 Z M 4.921875 0.125 "/></g></g></g><g fill="#0097b2" fill-opacity="1"><g transform="translate(122.546803, 285.782676)"><g><path d="M 4.953125 0.125 C 4.109375 0.125 3.347656 -0.0546875 2.671875 -0.421875 C 2.003906 -0.785156 1.476562 -1.289062 1.09375 -1.9375 C 0.707031 -2.59375 0.515625 -3.320312 0.515625 -4.125 C 0.515625 -4.914062 0.707031 -5.632812 1.09375 -6.28125 C 1.476562 -6.9375 2.003906 -7.445312 2.671875 -7.8125 C 3.347656 -8.175781 4.109375 -8.359375 4.953125 -8.359375 C 5.796875 -8.359375 6.550781 -8.175781 7.21875 -7.8125 C 7.894531 -7.445312 8.425781 -6.941406 8.8125 -6.296875 C 9.195312 -5.648438 9.390625 -4.925781 9.390625 -4.125 C 9.390625 -3.3125 9.195312 -2.582031 8.8125 -1.9375 C 8.425781 -1.289062 7.894531 -0.785156 7.21875 -0.421875 C 6.550781 -0.0546875 5.796875 0.125 4.953125 0.125 Z M 4.953125 -1.21875 C 5.503906 -1.21875 6 -1.34375 6.4375 -1.59375 C 6.875 -1.84375 7.21875 -2.1875 7.46875 -2.625 C 7.71875 -3.070312 7.84375 -3.570312 7.84375 -4.125 C 7.84375 -4.664062 7.71875 -5.15625 7.46875 -5.59375 C 7.21875 -6.039062 6.875 -6.390625 6.4375 -6.640625 C 6 -6.890625 5.503906 -7.015625 4.953125 -7.015625 C 4.398438 -7.015625 3.90625 -6.890625 3.46875 -6.640625 C 3.03125 -6.390625 2.6875 -6.039062 2.4375 -5.59375 C 2.1875 -5.15625 2.0625 -4.664062 2.0625 -4.125 C 2.0625 -3.570312 2.1875 -3.070312 2.4375 -2.625 C 2.6875 -2.1875 3.03125 -1.84375 3.46875 -1.59375 C 3.90625 -1.34375 4.398438 -1.21875 4.953125 -1.21875 Z M 4.953125 -1.21875 "/></g></g></g><g fill="#0097b2" fill-opacity="1"><g transform="translate(141.857472, 285.782676)"><g><path d="M 8.421875 -8.234375 L 8.421875 0 L 7.171875 0 L 2.625 -5.578125 L 2.625 0 L 1.109375 0 L 1.109375 -8.234375 L 2.359375 -8.234375 L 6.90625 -2.65625 L 6.90625 -8.234375 Z M 8.421875 -8.234375 "/></g></g></g><g fill="#0097b2" fill-opacity="1"><g transform="translate(160.79201, 285.782676)"><g><path d="M 3.65625 0.125 C 3.019531 0.125 2.40625 0.0351562 1.8125 -0.140625 C 1.21875 -0.328125 0.75 -0.570312 0.40625 -0.875 L 0.9375 -2.0625 C 1.28125 -1.789062 1.695312 -1.570312 2.1875 -1.40625 C 2.675781 -1.238281 3.164062 -1.15625 3.65625 -1.15625 C 4.269531 -1.15625 4.726562 -1.25 5.03125 -1.4375 C 5.332031 -1.632812 5.484375 -1.894531 5.484375 -2.21875 C 5.484375 -2.457031 5.398438 -2.648438 5.234375 -2.796875 C 5.066406 -2.953125 4.851562 -3.070312 4.59375 -3.15625 C 4.332031 -3.25 3.976562 -3.347656 3.53125 -3.453125 C 2.90625 -3.609375 2.394531 -3.757812 2 -3.90625 C 1.613281 -4.050781 1.28125 -4.28125 1 -4.59375 C 0.726562 -4.914062 0.59375 -5.347656 0.59375 -5.890625 C 0.59375 -6.347656 0.710938 -6.757812 0.953125 -7.125 C 1.203125 -7.5 1.578125 -7.796875 2.078125 -8.015625 C 2.578125 -8.242188 3.1875 -8.359375 3.90625 -8.359375 C 4.40625 -8.359375 4.898438 -8.296875 5.390625 -8.171875 C 5.878906 -8.046875 6.296875 -7.863281 6.640625 -7.625 L 6.171875 -6.4375 C 5.804688 -6.644531 5.425781 -6.800781 5.03125 -6.90625 C 4.644531 -7.019531 4.265625 -7.078125 3.890625 -7.078125 C 3.285156 -7.078125 2.835938 -6.972656 2.546875 -6.765625 C 2.253906 -6.566406 2.109375 -6.300781 2.109375 -5.96875 C 2.109375 -5.726562 2.191406 -5.535156 2.359375 -5.390625 C 2.523438 -5.242188 2.738281 -5.125 3 -5.03125 C 3.257812 -4.945312 3.613281 -4.847656 4.0625 -4.734375 C 4.675781 -4.597656 5.175781 -4.453125 5.5625 -4.296875 C 5.957031 -4.148438 6.289062 -3.914062 6.5625 -3.59375 C 6.84375 -3.28125 6.984375 -2.859375 6.984375 -2.328125 C 6.984375 -1.867188 6.859375 -1.457031 6.609375 -1.09375 C 6.367188 -0.726562 5.992188 -0.429688 5.484375 -0.203125 C 4.984375 0.015625 4.375 0.125 3.65625 0.125 Z M 3.65625 0.125 "/></g></g></g><g fill="#0097b2" fill-opacity="1"><g transform="translate(177.599077, 285.782676)"><g><path d="M 4.640625 0.125 C 3.503906 0.125 2.617188 -0.191406 1.984375 -0.828125 C 1.347656 -1.472656 1.03125 -2.394531 1.03125 -3.59375 L 1.03125 -8.234375 L 2.5625 -8.234375 L 2.5625 -3.640625 C 2.5625 -2.023438 3.257812 -1.21875 4.65625 -1.21875 C 6.039062 -1.21875 6.734375 -2.023438 6.734375 -3.640625 L 6.734375 -8.234375 L 8.25 -8.234375 L 8.25 -3.59375 C 8.25 -2.394531 7.929688 -1.472656 7.296875 -0.828125 C 6.671875 -0.191406 5.785156 0.125 4.640625 0.125 Z M 4.640625 0.125 "/></g></g></g><g fill="#0097b2" fill-opacity="1"><g transform="translate(196.286785, 285.782676)"><g><path d="M 1.109375 -8.234375 L 2.640625 -8.234375 L 2.640625 -1.296875 L 6.9375 -1.296875 L 6.9375 0 L 1.109375 0 Z M 1.109375 -8.234375 "/></g></g></g><g fill="#0097b2" fill-opacity="1"><g transform="translate(212.741242, 285.782676)"><g><path d="M 2.78125 -6.9375 L 0.046875 -6.9375 L 0.046875 -8.234375 L 7.03125 -8.234375 L 7.03125 -6.9375 L 4.3125 -6.9375 L 4.3125 0 L 2.78125 0 Z M 2.78125 -6.9375 "/></g></g></g><g fill="#0097b2" fill-opacity="1"><g transform="translate(229.230953, 285.782676)"><g><path d="M 1.109375 -8.234375 L 2.640625 -8.234375 L 2.640625 0 L 1.109375 0 Z M 1.109375 -8.234375 "/></g></g></g><g fill="#0097b2" fill-opacity="1"><g transform="translate(242.39429, 285.782676)"><g><path d="M 8.421875 -8.234375 L 8.421875 0 L 7.171875 0 L 2.625 -5.578125 L 2.625 0 L 1.109375 0 L 1.109375 -8.234375 L 2.359375 -8.234375 L 6.90625 -2.65625 L 6.90625 -8.234375 Z M 8.421875 -8.234375 "/></g></g></g><g fill="#0097b2" fill-opacity="1"><g transform="translate(261.328824, 285.782676)"><g><path d="M 6.734375 -4.21875 L 8.171875 -4.21875 L 8.171875 -0.921875 C 7.753906 -0.585938 7.257812 -0.328125 6.6875 -0.140625 C 6.125 0.0351562 5.546875 0.125 4.953125 0.125 C 4.109375 0.125 3.347656 -0.0546875 2.671875 -0.421875 C 2.003906 -0.785156 1.476562 -1.289062 1.09375 -1.9375 C 0.707031 -2.582031 0.515625 -3.3125 0.515625 -4.125 C 0.515625 -4.925781 0.707031 -5.648438 1.09375 -6.296875 C 1.476562 -6.941406 2.007812 -7.445312 2.6875 -7.8125 C 3.363281 -8.175781 4.128906 -8.359375 4.984375 -8.359375 C 5.671875 -8.359375 6.296875 -8.242188 6.859375 -8.015625 C 7.421875 -7.785156 7.894531 -7.453125 8.28125 -7.015625 L 7.3125 -6.078125 C 6.6875 -6.703125 5.929688 -7.015625 5.046875 -7.015625 C 4.460938 -7.015625 3.945312 -6.890625 3.5 -6.640625 C 3.050781 -6.398438 2.695312 -6.0625 2.4375 -5.625 C 2.1875 -5.1875 2.0625 -4.6875 2.0625 -4.125 C 2.0625 -3.570312 2.1875 -3.078125 2.4375 -2.640625 C 2.695312 -2.203125 3.050781 -1.851562 3.5 -1.59375 C 3.945312 -1.34375 4.457031 -1.21875 5.03125 -1.21875 C 5.675781 -1.21875 6.242188 -1.359375 6.734375 -1.640625 Z M 6.734375 -4.21875 "/></g></g></g><g clip-path="url(#66d3fbe11d)"><path stroke-linecap="butt" transform="matrix(0.0263174, 0, 0, -0.0262391, 46.793985, 280.777014)" fill="none" stroke-linejoin="miter" d="M 1658.64982 4714.153484 C 1658.64982 4714.153484 1658.64982 4714.153484 1658.946677 4714.153484 C 1658.946677 4714.004612 1659.095106 4714.004612 1659.095106 4714.004612 " stroke="#100f0d" stroke-width="10" stroke-opacity="1" stroke-miterlimit="10"/></g><g clip-path="url(#710b0cb9cb)"><path fill="#152039" d="M 212.152344 133.261719 L 212.152344 110.347656 L 194.21875 102.5 L 194.21875 154.230469 C 192.75 155.421875 191.234375 156.5625 189.671875 157.644531 L 189.671875 124.996094 L 171.738281 117.152344 L 171.738281 166.828125 C 170.246094 167.363281 168.730469 167.84375 167.191406 168.277344 L 167.191406 139.648438 L 149.257812 131.800781 L 149.257812 171.09375 C 148.339844 171.125 147.417969 171.144531 146.492188 171.144531 C 138.296875 171.144531 130.40625 169.839844 123.007812 167.429688 C 118.453125 165.945312 114.089844 164.042969 109.957031 161.765625 C 110.320312 161.890625 116.113281 163.867188 121.832031 162.796875 C 120.917969 158.535156 120.4375 154.113281 120.4375 149.582031 C 120.4375 114.789062 148.726562 86.585938 183.621094 86.585938 C 198.121094 86.585938 211.480469 91.453125 222.144531 99.644531 C 221.503906 111.835938 217.941406 123.269531 212.152344 133.261719 " fill-opacity="1" fill-rule="nonzero"/></g><g clip-path="url(#5a7e706d67)"><path fill="#0097b2" d="M 232.320312 109.441406 C 231.660156 102.019531 230.296875 97.601562 229.601562 95.730469 C 229.601562 95.734375 229.601562 95.742188 229.601562 95.746094 C 229.5625 96.53125 227.246094 140.925781 194.21875 164.015625 L 194.21875 164.011719 L 189.671875 166.933594 C 174.765625 175.71875 154.3125 180.308594 126.25 176.007812 C 126.25 176.007812 126.246094 176.007812 126.246094 176.007812 C 136.269531 197.597656 158.191406 212.578125 183.621094 212.578125 C 218.515625 212.578125 246.804688 184.375 246.804688 149.582031 C 246.804688 134.328125 241.367188 120.34375 232.320312 109.441406 " fill-opacity="1" fill-rule="nonzero"/></g></svg>