<svg xmlns="http://www.w3.org/2000/svg" xmlns:xlink="http://www.w3.org/1999/xlink" width="500" zoomAndPan="magnify" viewBox="0 0 375 374.999991" height="500" preserveAspectRatio="xMidYMid meet" version="1.0"><defs><g/><clipPath id="8a4a77344d"><path d="M 216.265625 235.882812 L 301 235.882812 L 301 302 L 216.265625 302 Z M 216.265625 235.882812 " clip-rule="nonzero"/></clipPath><clipPath id="ae36319184"><path d="M 226 243 L 319.570312 243 L 319.570312 334.132812 L 226 334.132812 Z M 226 243 " clip-rule="nonzero"/></clipPath><clipPath id="06dc798a6e"><path d="M 37.5 109.9375 L 176.953125 109.9375 L 176.953125 204.859375 L 37.5 204.859375 Z M 37.5 109.9375 " clip-rule="nonzero"/></clipPath><clipPath id="5a099f0add"><path d="M 54.75 109.9375 L 159.195312 109.9375 C 163.773438 109.9375 168.160156 111.757812 171.394531 114.992188 C 174.628906 118.226562 176.445312 122.613281 176.445312 127.1875 L 176.445312 187.15625 C 176.445312 191.730469 174.628906 196.117188 171.394531 199.351562 C 168.160156 202.585938 163.773438 204.40625 159.195312 204.40625 L 54.75 204.40625 C 50.175781 204.40625 45.789062 202.585938 42.550781 199.351562 C 39.316406 196.117188 37.5 191.730469 37.5 187.15625 L 37.5 127.1875 C 37.5 122.613281 39.316406 118.226562 42.550781 114.992188 C 45.789062 111.757812 50.175781 109.9375 54.75 109.9375 " clip-rule="nonzero"/></clipPath><clipPath id="b6e31c98a2"><path d="M 38.894531 235.882812 L 178 235.882812 L 178 337.835938 L 38.894531 337.835938 Z M 38.894531 235.882812 " clip-rule="nonzero"/></clipPath><clipPath id="db8890550b"><path d="M 56.144531 235.882812 L 160.59375 235.882812 C 165.167969 235.882812 169.554688 237.699219 172.789062 240.933594 C 176.027344 244.167969 177.84375 248.558594 177.84375 253.132812 L 177.84375 320.25 C 177.84375 324.824219 176.027344 329.210938 172.789062 332.449219 C 169.554688 335.683594 165.167969 337.5 160.59375 337.5 L 56.144531 337.5 C 51.570312 337.5 47.183594 335.683594 43.949219 332.449219 C 40.714844 329.210938 38.894531 324.824219 38.894531 320.25 L 38.894531 253.132812 C 38.894531 248.558594 40.714844 244.167969 43.949219 240.933594 C 47.183594 237.699219 51.570312 235.882812 56.144531 235.882812 " clip-rule="nonzero"/></clipPath><clipPath id="9e095841c0"><path d="M 198.554688 109.9375 L 338 109.9375 L 338 204.859375 L 198.554688 204.859375 Z M 198.554688 109.9375 " clip-rule="nonzero"/></clipPath><clipPath id="a098f119e7"><path d="M 215.804688 109.9375 L 320.25 109.9375 C 324.824219 109.9375 329.210938 111.757812 332.449219 114.992188 C 335.683594 118.226562 337.5 122.613281 337.5 127.1875 L 337.5 187.15625 C 337.5 191.730469 335.683594 196.117188 332.449219 199.351562 C 329.210938 202.585938 324.824219 204.40625 320.25 204.40625 L 215.804688 204.40625 C 211.226562 204.40625 206.839844 202.585938 203.605469 199.351562 C 200.371094 196.117188 198.554688 191.730469 198.554688 187.15625 L 198.554688 127.1875 C 198.554688 122.613281 200.371094 118.226562 203.605469 114.992188 C 206.839844 111.757812 211.226562 109.9375 215.804688 109.9375 " clip-rule="nonzero"/></clipPath></defs><g clip-path="url(#8a4a77344d)"><path fill="#152039" d="M 292.609375 272.28125 L 292.609375 254.414062 L 278.707031 248.296875 L 278.707031 288.632812 C 277.566406 289.5625 276.394531 290.453125 275.183594 291.292969 L 275.183594 265.835938 L 261.28125 259.71875 L 261.28125 298.457031 C 260.125 298.871094 258.949219 299.246094 257.757812 299.585938 L 257.757812 277.261719 L 243.855469 271.144531 L 243.855469 301.78125 C 243.144531 301.804688 242.425781 301.820312 241.710938 301.820312 C 235.359375 301.820312 229.242188 300.804688 223.507812 298.925781 C 219.976562 297.765625 216.59375 296.285156 213.390625 294.507812 C 213.671875 294.605469 218.164062 296.144531 222.59375 295.308594 C 221.886719 291.988281 221.515625 288.539062 221.515625 285.007812 C 221.515625 257.878906 243.441406 235.886719 270.492188 235.886719 C 281.730469 235.886719 292.085938 239.679688 300.355469 246.070312 C 299.855469 255.574219 297.097656 264.488281 292.609375 272.28125 " fill-opacity="1" fill-rule="nonzero"/></g><g clip-path="url(#ae36319184)"><path fill="#0097b2" d="M 308.242188 253.707031 C 307.730469 247.921875 306.671875 244.472656 306.136719 243.015625 C 306.136719 243.015625 306.136719 243.015625 306.132812 243.015625 C 306.132812 243.019531 306.132812 243.023438 306.132812 243.027344 C 306.105469 243.640625 304.308594 278.257812 278.707031 296.261719 L 278.707031 296.257812 L 275.183594 298.535156 C 263.628906 305.386719 247.773438 308.96875 226.019531 305.613281 C 233.789062 322.449219 250.78125 334.128906 270.492188 334.128906 C 297.542969 334.128906 319.472656 312.136719 319.472656 285.007812 C 319.472656 273.113281 315.253906 262.207031 308.242188 253.707031 " fill-opacity="1" fill-rule="nonzero"/></g><g clip-path="url(#06dc798a6e)"><g clip-path="url(#5a099f0add)"><path fill="#0097b2" d="M 37.5 109.9375 L 176.367188 109.9375 L 176.367188 204.273438 L 37.5 204.273438 Z M 37.5 109.9375 " fill-opacity="1" fill-rule="nonzero"/></g></g><g fill="#000000" fill-opacity="1"><g transform="translate(49.781251, 153.438506)"><g><path d="M 3.75 -6.953125 C 4.65625 -6.953125 5.363281 -6.738281 5.875 -6.3125 C 6.394531 -5.882812 6.65625 -5.289062 6.65625 -4.53125 C 6.65625 -3.78125 6.394531 -3.1875 5.875 -2.75 C 5.363281 -2.320312 4.65625 -2.109375 3.75 -2.109375 L 2.03125 -2.109375 L 2.03125 0 L 1.046875 0 L 1.046875 -6.953125 Z M 3.734375 -2.96875 C 4.359375 -2.96875 4.835938 -3.101562 5.171875 -3.375 C 5.503906 -3.644531 5.671875 -4.03125 5.671875 -4.53125 C 5.671875 -5.03125 5.503906 -5.414062 5.171875 -5.6875 C 4.835938 -5.957031 4.359375 -6.09375 3.734375 -6.09375 L 2.03125 -6.09375 L 2.03125 -2.96875 Z M 3.734375 -2.96875 "/></g></g></g><g fill="#000000" fill-opacity="1"><g transform="translate(56.956181, 153.438506)"><g><path d="M 5.6875 0 L 4.1875 -2.140625 C 4.007812 -2.117188 3.863281 -2.109375 3.75 -2.109375 L 2.03125 -2.109375 L 2.03125 0 L 1.046875 0 L 1.046875 -6.953125 L 3.75 -6.953125 C 4.65625 -6.953125 5.363281 -6.738281 5.875 -6.3125 C 6.394531 -5.882812 6.65625 -5.289062 6.65625 -4.53125 C 6.65625 -4 6.519531 -3.539062 6.25 -3.15625 C 5.988281 -2.78125 5.613281 -2.503906 5.125 -2.328125 L 6.78125 0 Z M 3.734375 -2.96875 C 4.359375 -2.96875 4.835938 -3.101562 5.171875 -3.375 C 5.503906 -3.644531 5.671875 -4.03125 5.671875 -4.53125 C 5.671875 -5.03125 5.503906 -5.414062 5.171875 -5.6875 C 4.835938 -5.957031 4.359375 -6.09375 3.734375 -6.09375 L 2.03125 -6.09375 L 2.03125 -2.96875 Z M 3.734375 -2.96875 "/></g></g></g><g fill="#000000" fill-opacity="1"><g transform="translate(64.180802, 153.438506)"><g><path d="M 6.09375 -0.859375 L 6.09375 0 L 1.046875 0 L 1.046875 -6.953125 L 5.953125 -6.953125 L 5.953125 -6.09375 L 2.03125 -6.09375 L 2.03125 -3.953125 L 5.53125 -3.953125 L 5.53125 -3.109375 L 2.03125 -3.109375 L 2.03125 -0.859375 Z M 6.09375 -0.859375 "/></g></g></g><g fill="#000000" fill-opacity="1"><g transform="translate(70.838985, 153.438506)"><g><path d="M 3.75 -6.953125 C 4.65625 -6.953125 5.363281 -6.738281 5.875 -6.3125 C 6.394531 -5.882812 6.65625 -5.289062 6.65625 -4.53125 C 6.65625 -3.78125 6.394531 -3.1875 5.875 -2.75 C 5.363281 -2.320312 4.65625 -2.109375 3.75 -2.109375 L 2.03125 -2.109375 L 2.03125 0 L 1.046875 0 L 1.046875 -6.953125 Z M 3.734375 -2.96875 C 4.359375 -2.96875 4.835938 -3.101562 5.171875 -3.375 C 5.503906 -3.644531 5.671875 -4.03125 5.671875 -4.53125 C 5.671875 -5.03125 5.503906 -5.414062 5.171875 -5.6875 C 4.835938 -5.957031 4.359375 -6.09375 3.734375 -6.09375 L 2.03125 -6.09375 L 2.03125 -2.96875 Z M 3.734375 -2.96875 "/></g></g></g><g fill="#000000" fill-opacity="1"><g transform="translate(78.013915, 153.438506)"><g><path d="M 5.46875 -1.734375 L 1.78125 -1.734375 L 1.015625 0 L -0.015625 0 L 3.140625 -6.953125 L 4.125 -6.953125 L 7.28125 0 L 6.234375 0 Z M 5.125 -2.53125 L 3.625 -5.9375 L 2.125 -2.53125 Z M 5.125 -2.53125 "/></g></g></g><g fill="#000000" fill-opacity="1"><g transform="translate(85.288226, 153.438506)"><g><path d="M 5.6875 0 L 4.1875 -2.140625 C 4.007812 -2.117188 3.863281 -2.109375 3.75 -2.109375 L 2.03125 -2.109375 L 2.03125 0 L 1.046875 0 L 1.046875 -6.953125 L 3.75 -6.953125 C 4.65625 -6.953125 5.363281 -6.738281 5.875 -6.3125 C 6.394531 -5.882812 6.65625 -5.289062 6.65625 -4.53125 C 6.65625 -4 6.519531 -3.539062 6.25 -3.15625 C 5.988281 -2.78125 5.613281 -2.503906 5.125 -2.328125 L 6.78125 0 Z M 3.734375 -2.96875 C 4.359375 -2.96875 4.835938 -3.101562 5.171875 -3.375 C 5.503906 -3.644531 5.671875 -4.03125 5.671875 -4.53125 C 5.671875 -5.03125 5.503906 -5.414062 5.171875 -5.6875 C 4.835938 -5.957031 4.359375 -6.09375 3.734375 -6.09375 L 2.03125 -6.09375 L 2.03125 -2.96875 Z M 3.734375 -2.96875 "/></g></g></g><g fill="#000000" fill-opacity="1"><g transform="translate(92.512846, 153.438506)"><g><path d="M 5.46875 -1.734375 L 1.78125 -1.734375 L 1.015625 0 L -0.015625 0 L 3.140625 -6.953125 L 4.125 -6.953125 L 7.28125 0 L 6.234375 0 Z M 5.125 -2.53125 L 3.625 -5.9375 L 2.125 -2.53125 Z M 5.125 -2.53125 "/></g></g></g><g fill="#000000" fill-opacity="1"><g transform="translate(99.787157, 153.438506)"><g><path d="M 4.15625 0.078125 C 3.457031 0.078125 2.828125 -0.0703125 2.265625 -0.375 C 1.710938 -0.6875 1.273438 -1.113281 0.953125 -1.65625 C 0.640625 -2.195312 0.484375 -2.804688 0.484375 -3.484375 C 0.484375 -4.148438 0.640625 -4.753906 0.953125 -5.296875 C 1.273438 -5.835938 1.71875 -6.257812 2.28125 -6.5625 C 2.84375 -6.875 3.46875 -7.03125 4.15625 -7.03125 C 4.707031 -7.03125 5.207031 -6.9375 5.65625 -6.75 C 6.101562 -6.570312 6.488281 -6.304688 6.8125 -5.953125 L 6.15625 -5.328125 C 5.632812 -5.878906 4.984375 -6.15625 4.203125 -6.15625 C 3.679688 -6.15625 3.210938 -6.035156 2.796875 -5.796875 C 2.378906 -5.566406 2.050781 -5.25 1.8125 -4.84375 C 1.582031 -4.4375 1.46875 -3.984375 1.46875 -3.484375 C 1.46875 -2.972656 1.582031 -2.515625 1.8125 -2.109375 C 2.050781 -1.703125 2.378906 -1.382812 2.796875 -1.15625 C 3.210938 -0.925781 3.679688 -0.8125 4.203125 -0.8125 C 4.972656 -0.8125 5.625 -1.085938 6.15625 -1.640625 L 6.8125 -1.015625 C 6.488281 -0.660156 6.097656 -0.390625 5.640625 -0.203125 C 5.191406 -0.015625 4.695312 0.078125 4.15625 0.078125 Z M 3.734375 2.21875 C 3.390625 2.21875 3.097656 2.144531 2.859375 2 L 3.0625 1.515625 C 3.257812 1.628906 3.484375 1.6875 3.734375 1.6875 C 4.109375 1.6875 4.296875 1.554688 4.296875 1.296875 C 4.296875 1.171875 4.25 1.070312 4.15625 1 C 4.0625 0.9375 3.921875 0.90625 3.734375 0.90625 L 3.453125 0.90625 L 3.703125 -0.0625 L 4.25 -0.0625 L 4.109375 0.5 C 4.390625 0.519531 4.601562 0.601562 4.75 0.75 C 4.894531 0.90625 4.96875 1.097656 4.96875 1.328125 C 4.96875 1.597656 4.851562 1.8125 4.625 1.96875 C 4.40625 2.132812 4.109375 2.21875 3.734375 2.21875 Z M 3.734375 2.21875 "/></g></g></g><g fill="#000000" fill-opacity="1"><g transform="translate(106.972032, 153.438506)"><g><path d="M 5.46875 -1.734375 L 1.78125 -1.734375 L 1.015625 0 L -0.015625 0 L 3.140625 -6.953125 L 4.125 -6.953125 L 7.28125 0 L 6.234375 0 Z M 5.125 -2.53125 L 3.625 -5.9375 L 2.125 -2.53125 Z M 4.34375 -7.546875 C 4.175781 -7.546875 4.035156 -7.578125 3.921875 -7.640625 C 3.804688 -7.710938 3.664062 -7.816406 3.5 -7.953125 C 3.394531 -8.046875 3.304688 -8.113281 3.234375 -8.15625 C 3.160156 -8.195312 3.085938 -8.21875 3.015625 -8.21875 C 2.867188 -8.21875 2.75 -8.160156 2.65625 -8.046875 C 2.5625 -7.941406 2.515625 -7.796875 2.515625 -7.609375 L 1.96875 -7.609375 C 1.988281 -7.972656 2.082031 -8.265625 2.25 -8.484375 C 2.425781 -8.703125 2.660156 -8.8125 2.953125 -8.8125 C 3.109375 -8.8125 3.242188 -8.773438 3.359375 -8.703125 C 3.484375 -8.640625 3.628906 -8.539062 3.796875 -8.40625 C 3.910156 -8.3125 4 -8.242188 4.0625 -8.203125 C 4.125 -8.160156 4.191406 -8.140625 4.265625 -8.140625 C 4.410156 -8.140625 4.53125 -8.191406 4.625 -8.296875 C 4.71875 -8.398438 4.769531 -8.546875 4.78125 -8.734375 L 5.3125 -8.734375 C 5.300781 -8.378906 5.207031 -8.09375 5.03125 -7.875 C 4.851562 -7.65625 4.625 -7.546875 4.34375 -7.546875 Z M 4.34375 -7.546875 "/></g></g></g><g fill="#000000" fill-opacity="1"><g transform="translate(114.246343, 153.438506)"><g><path d="M 4.1875 0.078125 C 3.476562 0.078125 2.84375 -0.0703125 2.28125 -0.375 C 1.71875 -0.6875 1.273438 -1.113281 0.953125 -1.65625 C 0.640625 -2.195312 0.484375 -2.804688 0.484375 -3.484375 C 0.484375 -4.148438 0.640625 -4.753906 0.953125 -5.296875 C 1.273438 -5.835938 1.71875 -6.257812 2.28125 -6.5625 C 2.84375 -6.875 3.476562 -7.03125 4.1875 -7.03125 C 4.882812 -7.03125 5.515625 -6.875 6.078125 -6.5625 C 6.640625 -6.257812 7.078125 -5.835938 7.390625 -5.296875 C 7.710938 -4.753906 7.875 -4.148438 7.875 -3.484375 C 7.875 -2.804688 7.710938 -2.195312 7.390625 -1.65625 C 7.078125 -1.113281 6.640625 -0.6875 6.078125 -0.375 C 5.515625 -0.0703125 4.882812 0.078125 4.1875 0.078125 Z M 4.1875 -0.8125 C 4.695312 -0.8125 5.15625 -0.925781 5.5625 -1.15625 C 5.96875 -1.382812 6.285156 -1.703125 6.515625 -2.109375 C 6.753906 -2.515625 6.875 -2.972656 6.875 -3.484375 C 6.875 -3.984375 6.753906 -4.4375 6.515625 -4.84375 C 6.285156 -5.25 5.96875 -5.566406 5.5625 -5.796875 C 5.15625 -6.035156 4.695312 -6.15625 4.1875 -6.15625 C 3.675781 -6.15625 3.210938 -6.035156 2.796875 -5.796875 C 2.378906 -5.566406 2.050781 -5.25 1.8125 -4.84375 C 1.582031 -4.4375 1.46875 -3.984375 1.46875 -3.484375 C 1.46875 -2.972656 1.582031 -2.515625 1.8125 -2.109375 C 2.050781 -1.703125 2.378906 -1.382812 2.796875 -1.15625 C 3.210938 -0.925781 3.675781 -0.8125 4.1875 -0.8125 Z M 4.1875 -0.8125 "/></g></g></g><g fill="#000000" fill-opacity="1"><g transform="translate(122.593914, 153.438506)"><g/></g></g><g fill="#000000" fill-opacity="1"><g transform="translate(125.267128, 153.438506)"><g><path d="M 3.75 -6.953125 C 4.65625 -6.953125 5.363281 -6.738281 5.875 -6.3125 C 6.394531 -5.882812 6.65625 -5.289062 6.65625 -4.53125 C 6.65625 -3.78125 6.394531 -3.1875 5.875 -2.75 C 5.363281 -2.320312 4.65625 -2.109375 3.75 -2.109375 L 2.03125 -2.109375 L 2.03125 0 L 1.046875 0 L 1.046875 -6.953125 Z M 3.734375 -2.96875 C 4.359375 -2.96875 4.835938 -3.101562 5.171875 -3.375 C 5.503906 -3.644531 5.671875 -4.03125 5.671875 -4.53125 C 5.671875 -5.03125 5.503906 -5.414062 5.171875 -5.6875 C 4.835938 -5.957031 4.359375 -6.09375 3.734375 -6.09375 L 2.03125 -6.09375 L 2.03125 -2.96875 Z M 3.734375 -2.96875 "/></g></g></g><g fill="#000000" fill-opacity="1"><g transform="translate(132.442058, 153.438506)"><g><path d="M 5.46875 -1.734375 L 1.78125 -1.734375 L 1.015625 0 L -0.015625 0 L 3.140625 -6.953125 L 4.125 -6.953125 L 7.28125 0 L 6.234375 0 Z M 5.125 -2.53125 L 3.625 -5.9375 L 2.125 -2.53125 Z M 5.125 -2.53125 "/></g></g></g><g fill="#000000" fill-opacity="1"><g transform="translate(139.716369, 153.438506)"><g><path d="M 5.6875 0 L 4.1875 -2.140625 C 4.007812 -2.117188 3.863281 -2.109375 3.75 -2.109375 L 2.03125 -2.109375 L 2.03125 0 L 1.046875 0 L 1.046875 -6.953125 L 3.75 -6.953125 C 4.65625 -6.953125 5.363281 -6.738281 5.875 -6.3125 C 6.394531 -5.882812 6.65625 -5.289062 6.65625 -4.53125 C 6.65625 -4 6.519531 -3.539062 6.25 -3.15625 C 5.988281 -2.78125 5.613281 -2.503906 5.125 -2.328125 L 6.78125 0 Z M 3.734375 -2.96875 C 4.359375 -2.96875 4.835938 -3.101562 5.171875 -3.375 C 5.503906 -3.644531 5.671875 -4.03125 5.671875 -4.53125 C 5.671875 -5.03125 5.503906 -5.414062 5.171875 -5.6875 C 4.835938 -5.957031 4.359375 -6.09375 3.734375 -6.09375 L 2.03125 -6.09375 L 2.03125 -2.96875 Z M 3.734375 -2.96875 "/></g></g></g><g fill="#000000" fill-opacity="1"><g transform="translate(146.940989, 153.438506)"><g><path d="M 5.46875 -1.734375 L 1.78125 -1.734375 L 1.015625 0 L -0.015625 0 L 3.140625 -6.953125 L 4.125 -6.953125 L 7.28125 0 L 6.234375 0 Z M 5.125 -2.53125 L 3.625 -5.9375 L 2.125 -2.53125 Z M 5.125 -2.53125 "/></g></g></g><g fill="#000000" fill-opacity="1"><g transform="translate(154.2153, 153.438506)"><g/></g></g><g fill="#000000" fill-opacity="1"><g transform="translate(156.888513, 153.438506)"><g><path d="M 5.46875 -1.734375 L 1.78125 -1.734375 L 1.015625 0 L -0.015625 0 L 3.140625 -6.953125 L 4.125 -6.953125 L 7.28125 0 L 6.234375 0 Z M 5.125 -2.53125 L 3.625 -5.9375 L 2.125 -2.53125 Z M 5.125 -2.53125 "/></g></g></g><g fill="#000000" fill-opacity="1"><g transform="translate(53.26172, 166.938505)"><g><path d="M 2.03125 -6.09375 L 2.03125 -3.671875 L 5.53125 -3.671875 L 5.53125 -2.8125 L 2.03125 -2.8125 L 2.03125 0 L 1.046875 0 L 1.046875 -6.953125 L 5.953125 -6.953125 L 5.953125 -6.09375 Z M 2.03125 -6.09375 "/></g></g></g><g fill="#000000" fill-opacity="1"><g transform="translate(59.572083, 166.938505)"><g><path d="M 6.09375 -0.859375 L 6.09375 0 L 1.046875 0 L 1.046875 -6.953125 L 5.953125 -6.953125 L 5.953125 -6.09375 L 2.03125 -6.09375 L 2.03125 -3.953125 L 5.53125 -3.953125 L 5.53125 -3.109375 L 2.03125 -3.109375 L 2.03125 -0.859375 Z M 6.09375 -0.859375 "/></g></g></g><g fill="#000000" fill-opacity="1"><g transform="translate(66.230267, 166.938505)"><g><path d="M 1.046875 -6.953125 L 2.03125 -6.953125 L 2.03125 0 L 1.046875 0 Z M 1.046875 -6.953125 "/></g></g></g><g fill="#000000" fill-opacity="1"><g transform="translate(69.310913, 166.938505)"><g><path d="M 5.6875 0 L 4.1875 -2.140625 C 4.007812 -2.117188 3.863281 -2.109375 3.75 -2.109375 L 2.03125 -2.109375 L 2.03125 0 L 1.046875 0 L 1.046875 -6.953125 L 3.75 -6.953125 C 4.65625 -6.953125 5.363281 -6.738281 5.875 -6.3125 C 6.394531 -5.882812 6.65625 -5.289062 6.65625 -4.53125 C 6.65625 -4 6.519531 -3.539062 6.25 -3.15625 C 5.988281 -2.78125 5.613281 -2.503906 5.125 -2.328125 L 6.78125 0 Z M 3.734375 -2.96875 C 4.359375 -2.96875 4.835938 -3.101562 5.171875 -3.375 C 5.503906 -3.644531 5.671875 -4.03125 5.671875 -4.53125 C 5.671875 -5.03125 5.503906 -5.414062 5.171875 -5.6875 C 4.835938 -5.957031 4.359375 -6.09375 3.734375 -6.09375 L 2.03125 -6.09375 L 2.03125 -2.96875 Z M 3.734375 -2.96875 "/></g></g></g><g fill="#000000" fill-opacity="1"><g transform="translate(76.535533, 166.938505)"><g><path d="M 5.46875 -1.734375 L 1.78125 -1.734375 L 1.015625 0 L -0.015625 0 L 3.140625 -6.953125 L 4.125 -6.953125 L 7.28125 0 L 6.234375 0 Z M 5.125 -2.53125 L 3.625 -5.9375 L 2.125 -2.53125 Z M 5.125 -2.53125 "/></g></g></g><g fill="#000000" fill-opacity="1"><g transform="translate(83.809844, 166.938505)"><g/></g></g><g fill="#000000" fill-opacity="1"><g transform="translate(86.483058, 166.938505)"><g><path d="M 1.046875 -6.953125 L 3.96875 -6.953125 C 4.707031 -6.953125 5.359375 -6.804688 5.921875 -6.515625 C 6.492188 -6.222656 6.9375 -5.8125 7.25 -5.28125 C 7.570312 -4.757812 7.734375 -4.160156 7.734375 -3.484375 C 7.734375 -2.796875 7.570312 -2.1875 7.25 -1.65625 C 6.9375 -1.132812 6.492188 -0.726562 5.921875 -0.4375 C 5.359375 -0.144531 4.707031 0 3.96875 0 L 1.046875 0 Z M 3.921875 -0.859375 C 4.484375 -0.859375 4.976562 -0.96875 5.40625 -1.1875 C 5.832031 -1.40625 6.160156 -1.710938 6.390625 -2.109375 C 6.617188 -2.503906 6.734375 -2.960938 6.734375 -3.484375 C 6.734375 -3.992188 6.617188 -4.445312 6.390625 -4.84375 C 6.160156 -5.238281 5.832031 -5.546875 5.40625 -5.765625 C 4.976562 -5.984375 4.484375 -6.09375 3.921875 -6.09375 L 2.03125 -6.09375 L 2.03125 -0.859375 Z M 3.921875 -0.859375 "/></g></g></g><g fill="#000000" fill-opacity="1"><g transform="translate(94.691504, 166.938505)"><g><path d="M 6.09375 -0.859375 L 6.09375 0 L 1.046875 0 L 1.046875 -6.953125 L 5.953125 -6.953125 L 5.953125 -6.09375 L 2.03125 -6.09375 L 2.03125 -3.953125 L 5.53125 -3.953125 L 5.53125 -3.109375 L 2.03125 -3.109375 L 2.03125 -0.859375 Z M 6.09375 -0.859375 "/></g></g></g><g fill="#000000" fill-opacity="1"><g transform="translate(101.349687, 166.938505)"><g/></g></g><g fill="#000000" fill-opacity="1"><g transform="translate(104.022901, 166.938505)"><g><path d="M 3.078125 0.078125 C 2.546875 0.078125 2.035156 0 1.546875 -0.15625 C 1.066406 -0.320312 0.6875 -0.535156 0.40625 -0.796875 L 0.78125 -1.5625 C 1.039062 -1.332031 1.378906 -1.140625 1.796875 -0.984375 C 2.210938 -0.835938 2.640625 -0.765625 3.078125 -0.765625 C 3.648438 -0.765625 4.078125 -0.859375 4.359375 -1.046875 C 4.648438 -1.242188 4.796875 -1.507812 4.796875 -1.84375 C 4.796875 -2.082031 4.71875 -2.273438 4.5625 -2.421875 C 4.40625 -2.566406 4.210938 -2.675781 3.984375 -2.75 C 3.753906 -2.832031 3.429688 -2.925781 3.015625 -3.03125 C 2.484375 -3.15625 2.054688 -3.28125 1.734375 -3.40625 C 1.421875 -3.53125 1.148438 -3.722656 0.921875 -3.984375 C 0.691406 -4.242188 0.578125 -4.597656 0.578125 -5.046875 C 0.578125 -5.421875 0.671875 -5.753906 0.859375 -6.046875 C 1.054688 -6.347656 1.351562 -6.585938 1.75 -6.765625 C 2.15625 -6.941406 2.648438 -7.03125 3.234375 -7.03125 C 3.648438 -7.03125 4.054688 -6.976562 4.453125 -6.875 C 4.847656 -6.769531 5.1875 -6.617188 5.46875 -6.421875 L 5.140625 -5.625 C 4.847656 -5.8125 4.535156 -5.953125 4.203125 -6.046875 C 3.878906 -6.140625 3.554688 -6.1875 3.234375 -6.1875 C 2.671875 -6.1875 2.25 -6.082031 1.96875 -5.875 C 1.6875 -5.675781 1.546875 -5.414062 1.546875 -5.09375 C 1.546875 -4.851562 1.625 -4.65625 1.78125 -4.5 C 1.945312 -4.351562 2.144531 -4.238281 2.375 -4.15625 C 2.613281 -4.070312 2.9375 -3.984375 3.34375 -3.890625 C 3.863281 -3.765625 4.28125 -3.640625 4.59375 -3.515625 C 4.914062 -3.390625 5.191406 -3.195312 5.421875 -2.9375 C 5.648438 -2.675781 5.765625 -2.328125 5.765625 -1.890625 C 5.765625 -1.523438 5.664062 -1.191406 5.46875 -0.890625 C 5.269531 -0.597656 4.96875 -0.363281 4.5625 -0.1875 C 4.15625 -0.0078125 3.660156 0.078125 3.078125 0.078125 Z M 3.078125 0.078125 "/></g></g></g><g fill="#000000" fill-opacity="1"><g transform="translate(110.194139, 166.938505)"><g><path d="M 4.1875 0.078125 C 3.476562 0.078125 2.84375 -0.0703125 2.28125 -0.375 C 1.71875 -0.6875 1.273438 -1.113281 0.953125 -1.65625 C 0.640625 -2.195312 0.484375 -2.804688 0.484375 -3.484375 C 0.484375 -4.148438 0.640625 -4.753906 0.953125 -5.296875 C 1.273438 -5.835938 1.71875 -6.257812 2.28125 -6.5625 C 2.84375 -6.875 3.476562 -7.03125 4.1875 -7.03125 C 4.882812 -7.03125 5.515625 -6.875 6.078125 -6.5625 C 6.640625 -6.257812 7.078125 -5.835938 7.390625 -5.296875 C 7.710938 -4.753906 7.875 -4.148438 7.875 -3.484375 C 7.875 -2.804688 7.710938 -2.195312 7.390625 -1.65625 C 7.078125 -1.113281 6.640625 -0.6875 6.078125 -0.375 C 5.515625 -0.0703125 4.882812 0.078125 4.1875 0.078125 Z M 4.1875 -0.8125 C 4.695312 -0.8125 5.15625 -0.925781 5.5625 -1.15625 C 5.96875 -1.382812 6.285156 -1.703125 6.515625 -2.109375 C 6.753906 -2.515625 6.875 -2.972656 6.875 -3.484375 C 6.875 -3.984375 6.753906 -4.4375 6.515625 -4.84375 C 6.285156 -5.25 5.96875 -5.566406 5.5625 -5.796875 C 5.15625 -6.035156 4.695312 -6.15625 4.1875 -6.15625 C 3.675781 -6.15625 3.210938 -6.035156 2.796875 -5.796875 C 2.378906 -5.566406 2.050781 -5.25 1.8125 -4.84375 C 1.582031 -4.4375 1.46875 -3.984375 1.46875 -3.484375 C 1.46875 -2.972656 1.582031 -2.515625 1.8125 -2.109375 C 2.050781 -1.703125 2.378906 -1.382812 2.796875 -1.15625 C 3.210938 -0.925781 3.675781 -0.8125 4.1875 -0.8125 Z M 4.1875 -0.8125 "/></g></g></g><g fill="#000000" fill-opacity="1"><g transform="translate(118.54171, 166.938505)"><g><path d="M 1.046875 -6.953125 L 2.03125 -6.953125 L 2.03125 -0.859375 L 5.796875 -0.859375 L 5.796875 0 L 1.046875 0 Z M 1.046875 -6.953125 "/></g></g></g><g fill="#000000" fill-opacity="1"><g transform="translate(124.44463, 166.938505)"><g><path d="M 3.921875 0.078125 C 2.992188 0.078125 2.269531 -0.1875 1.75 -0.71875 C 1.238281 -1.25 0.984375 -2.007812 0.984375 -3 L 0.984375 -6.953125 L 1.984375 -6.953125 L 1.984375 -3.046875 C 1.984375 -1.554688 2.632812 -0.8125 3.9375 -0.8125 C 4.570312 -0.8125 5.054688 -0.992188 5.390625 -1.359375 C 5.734375 -1.722656 5.90625 -2.285156 5.90625 -3.046875 L 5.90625 -6.953125 L 6.859375 -6.953125 L 6.859375 -3 C 6.859375 -2 6.597656 -1.234375 6.078125 -0.703125 C 5.566406 -0.179688 4.847656 0.078125 3.921875 0.078125 Z M 3.921875 0.078125 "/></g></g></g><g fill="#000000" fill-opacity="1"><g transform="translate(132.305256, 166.938505)"><g><path d="M 4.15625 0.078125 C 3.457031 0.078125 2.828125 -0.0703125 2.265625 -0.375 C 1.710938 -0.6875 1.273438 -1.113281 0.953125 -1.65625 C 0.640625 -2.195312 0.484375 -2.804688 0.484375 -3.484375 C 0.484375 -4.148438 0.640625 -4.753906 0.953125 -5.296875 C 1.273438 -5.835938 1.71875 -6.257812 2.28125 -6.5625 C 2.84375 -6.875 3.46875 -7.03125 4.15625 -7.03125 C 4.707031 -7.03125 5.207031 -6.9375 5.65625 -6.75 C 6.101562 -6.570312 6.488281 -6.304688 6.8125 -5.953125 L 6.15625 -5.328125 C 5.632812 -5.878906 4.984375 -6.15625 4.203125 -6.15625 C 3.679688 -6.15625 3.210938 -6.035156 2.796875 -5.796875 C 2.378906 -5.566406 2.050781 -5.25 1.8125 -4.84375 C 1.582031 -4.4375 1.46875 -3.984375 1.46875 -3.484375 C 1.46875 -2.972656 1.582031 -2.515625 1.8125 -2.109375 C 2.050781 -1.703125 2.378906 -1.382812 2.796875 -1.15625 C 3.210938 -0.925781 3.679688 -0.8125 4.203125 -0.8125 C 4.972656 -0.8125 5.625 -1.085938 6.15625 -1.640625 L 6.8125 -1.015625 C 6.488281 -0.660156 6.097656 -0.390625 5.640625 -0.203125 C 5.191406 -0.015625 4.695312 0.078125 4.15625 0.078125 Z M 3.734375 2.21875 C 3.390625 2.21875 3.097656 2.144531 2.859375 2 L 3.0625 1.515625 C 3.257812 1.628906 3.484375 1.6875 3.734375 1.6875 C 4.109375 1.6875 4.296875 1.554688 4.296875 1.296875 C 4.296875 1.171875 4.25 1.070312 4.15625 1 C 4.0625 0.9375 3.921875 0.90625 3.734375 0.90625 L 3.453125 0.90625 L 3.703125 -0.0625 L 4.25 -0.0625 L 4.109375 0.5 C 4.390625 0.519531 4.601562 0.601562 4.75 0.75 C 4.894531 0.90625 4.96875 1.097656 4.96875 1.328125 C 4.96875 1.597656 4.851562 1.8125 4.625 1.96875 C 4.40625 2.132812 4.109375 2.21875 3.734375 2.21875 Z M 3.734375 2.21875 "/></g></g></g><g fill="#000000" fill-opacity="1"><g transform="translate(139.490131, 166.938505)"><g><path d="M 4.1875 0.078125 C 3.476562 0.078125 2.84375 -0.0703125 2.28125 -0.375 C 1.71875 -0.6875 1.273438 -1.113281 0.953125 -1.65625 C 0.640625 -2.195312 0.484375 -2.804688 0.484375 -3.484375 C 0.484375 -4.148438 0.640625 -4.753906 0.953125 -5.296875 C 1.273438 -5.835938 1.71875 -6.257812 2.28125 -6.5625 C 2.84375 -6.875 3.476562 -7.03125 4.1875 -7.03125 C 4.882812 -7.03125 5.515625 -6.875 6.078125 -6.5625 C 6.640625 -6.257812 7.078125 -5.835938 7.390625 -5.296875 C 7.710938 -4.753906 7.875 -4.148438 7.875 -3.484375 C 7.875 -2.804688 7.710938 -2.195312 7.390625 -1.65625 C 7.078125 -1.113281 6.640625 -0.6875 6.078125 -0.375 C 5.515625 -0.0703125 4.882812 0.078125 4.1875 0.078125 Z M 4.1875 -0.8125 C 4.695312 -0.8125 5.15625 -0.925781 5.5625 -1.15625 C 5.96875 -1.382812 6.285156 -1.703125 6.515625 -2.109375 C 6.753906 -2.515625 6.875 -2.972656 6.875 -3.484375 C 6.875 -3.984375 6.753906 -4.4375 6.515625 -4.84375 C 6.285156 -5.25 5.96875 -5.566406 5.5625 -5.796875 C 5.15625 -6.035156 4.695312 -6.15625 4.1875 -6.15625 C 3.675781 -6.15625 3.210938 -6.035156 2.796875 -5.796875 C 2.378906 -5.566406 2.050781 -5.25 1.8125 -4.84375 C 1.582031 -4.4375 1.46875 -3.984375 1.46875 -3.484375 C 1.46875 -2.972656 1.582031 -2.515625 1.8125 -2.109375 C 2.050781 -1.703125 2.378906 -1.382812 2.796875 -1.15625 C 3.210938 -0.925781 3.675781 -0.8125 4.1875 -0.8125 Z M 4.890625 -7.546875 C 4.722656 -7.546875 4.582031 -7.578125 4.46875 -7.640625 C 4.351562 -7.710938 4.210938 -7.816406 4.046875 -7.953125 C 3.941406 -8.046875 3.851562 -8.113281 3.78125 -8.15625 C 3.707031 -8.195312 3.632812 -8.21875 3.5625 -8.21875 C 3.414062 -8.21875 3.296875 -8.160156 3.203125 -8.046875 C 3.109375 -7.941406 3.0625 -7.796875 3.0625 -7.609375 L 2.515625 -7.609375 C 2.535156 -7.972656 2.628906 -8.265625 2.796875 -8.484375 C 2.972656 -8.703125 3.207031 -8.8125 3.5 -8.8125 C 3.65625 -8.8125 3.789062 -8.773438 3.90625 -8.703125 C 4.03125 -8.640625 4.175781 -8.539062 4.34375 -8.40625 C 4.457031 -8.3125 4.546875 -8.242188 4.609375 -8.203125 C 4.671875 -8.160156 4.738281 -8.140625 4.8125 -8.140625 C 4.957031 -8.140625 5.078125 -8.191406 5.171875 -8.296875 C 5.265625 -8.398438 5.316406 -8.546875 5.328125 -8.734375 L 5.859375 -8.734375 C 5.847656 -8.378906 5.753906 -8.09375 5.578125 -7.875 C 5.398438 -7.65625 5.171875 -7.546875 4.890625 -7.546875 Z M 4.890625 -7.546875 "/></g></g></g><g fill="#000000" fill-opacity="1"><g transform="translate(147.837702, 166.938505)"><g><path d="M 6.09375 -0.859375 L 6.09375 0 L 1.046875 0 L 1.046875 -6.953125 L 5.953125 -6.953125 L 5.953125 -6.09375 L 2.03125 -6.09375 L 2.03125 -3.953125 L 5.53125 -3.953125 L 5.53125 -3.109375 L 2.03125 -3.109375 L 2.03125 -0.859375 Z M 6.09375 -0.859375 "/></g></g></g><g fill="#000000" fill-opacity="1"><g transform="translate(154.495886, 166.938505)"><g><path d="M 3.078125 0.078125 C 2.546875 0.078125 2.035156 0 1.546875 -0.15625 C 1.066406 -0.320312 0.6875 -0.535156 0.40625 -0.796875 L 0.78125 -1.5625 C 1.039062 -1.332031 1.378906 -1.140625 1.796875 -0.984375 C 2.210938 -0.835938 2.640625 -0.765625 3.078125 -0.765625 C 3.648438 -0.765625 4.078125 -0.859375 4.359375 -1.046875 C 4.648438 -1.242188 4.796875 -1.507812 4.796875 -1.84375 C 4.796875 -2.082031 4.71875 -2.273438 4.5625 -2.421875 C 4.40625 -2.566406 4.210938 -2.675781 3.984375 -2.75 C 3.753906 -2.832031 3.429688 -2.925781 3.015625 -3.03125 C 2.484375 -3.15625 2.054688 -3.28125 1.734375 -3.40625 C 1.421875 -3.53125 1.148438 -3.722656 0.921875 -3.984375 C 0.691406 -4.242188 0.578125 -4.597656 0.578125 -5.046875 C 0.578125 -5.421875 0.671875 -5.753906 0.859375 -6.046875 C 1.054688 -6.347656 1.351562 -6.585938 1.75 -6.765625 C 2.15625 -6.941406 2.648438 -7.03125 3.234375 -7.03125 C 3.648438 -7.03125 4.054688 -6.976562 4.453125 -6.875 C 4.847656 -6.769531 5.1875 -6.617188 5.46875 -6.421875 L 5.140625 -5.625 C 4.847656 -5.8125 4.535156 -5.953125 4.203125 -6.046875 C 3.878906 -6.140625 3.554688 -6.1875 3.234375 -6.1875 C 2.671875 -6.1875 2.25 -6.082031 1.96875 -5.875 C 1.6875 -5.675781 1.546875 -5.414062 1.546875 -5.09375 C 1.546875 -4.851562 1.625 -4.65625 1.78125 -4.5 C 1.945312 -4.351562 2.144531 -4.238281 2.375 -4.15625 C 2.613281 -4.070312 2.9375 -3.984375 3.34375 -3.890625 C 3.863281 -3.765625 4.28125 -3.640625 4.59375 -3.515625 C 4.914062 -3.390625 5.191406 -3.195312 5.421875 -2.9375 C 5.648438 -2.675781 5.765625 -2.328125 5.765625 -1.890625 C 5.765625 -1.523438 5.664062 -1.191406 5.46875 -0.890625 C 5.269531 -0.597656 4.96875 -0.363281 4.5625 -0.1875 C 4.15625 -0.0078125 3.660156 0.078125 3.078125 0.078125 Z M 3.078125 0.078125 "/></g></g></g><g fill="#152039" fill-opacity="1"><g transform="translate(92.042576, 66.427379)"><g><path d="M 10.367188 0.464844 C 15.183594 0.464844 19.171875 -1.960938 19.171875 -6.976562 C 19.171875 -12.195312 14.71875 -13.289062 11.195312 -14.1875 C 8.703125 -14.785156 6.710938 -15.285156 6.710938 -16.910156 C 6.710938 -18.441406 8.339844 -19.136719 9.96875 -19.136719 C 11.859375 -19.136719 13.523438 -18.207031 13.523438 -16.179688 L 18.472656 -16.179688 C 18.472656 -20.832031 15.449219 -23.6875 10.101562 -23.6875 C 4.949219 -23.6875 1.660156 -21.164062 1.660156 -16.710938 C 1.660156 -11.695312 5.914062 -10.664062 9.4375 -9.800781 C 11.960938 -9.238281 14.085938 -8.738281 14.085938 -6.910156 C 14.085938 -5.183594 12.226562 -4.1875 10.332031 -4.1875 C 8.273438 -4.1875 6.414062 -5.28125 6.414062 -7.507812 L 1.328125 -7.507812 C 1.328125 -2.523438 5.015625 0.464844 10.367188 0.464844 Z M 10.367188 0.464844 "/></g></g></g><g fill="#152039" fill-opacity="1"><g transform="translate(119.252627, 66.427379)"><g><path d="M 11.59375 -23.257812 L 2.65625 -23.257812 L 2.65625 0 L 7.675781 0 L 7.675781 -7.242188 L 11.59375 -7.242188 C 16.28125 -7.242188 19.800781 -10.664062 19.800781 -15.25 C 19.800781 -19.835938 16.246094 -23.257812 11.59375 -23.257812 Z M 11.363281 -11.894531 L 7.675781 -11.894531 L 7.675781 -18.574219 L 11.363281 -18.574219 C 13.355469 -18.574219 14.71875 -17.175781 14.71875 -15.25 C 14.71875 -13.324219 13.355469 -11.894531 11.363281 -11.894531 Z M 11.363281 -11.894531 "/></g></g></g><g fill="#152039" fill-opacity="1"><g transform="translate(146.562345, 66.427379)"><g><path d="M 15.449219 0 L 21.066406 0 L 15.914062 -8.769531 C 18.507812 -10.035156 20.167969 -12.492188 20.167969 -15.550781 C 20.167969 -20.035156 16.679688 -23.257812 12.027344 -23.257812 L 2.65625 -23.257812 L 2.65625 0 L 7.675781 0 L 7.675781 -7.90625 L 10.898438 -7.90625 Z M 7.675781 -18.605469 L 11.695312 -18.605469 C 13.820312 -18.605469 15.050781 -17.308594 15.050781 -15.582031 C 15.050781 -13.820312 13.820312 -12.558594 11.695312 -12.558594 L 7.675781 -12.558594 Z M 7.675781 -18.605469 "/></g></g></g><g fill="#152039" fill-opacity="1"><g transform="translate(175.167749, 66.427379)"><g><path d="M 2.65625 0 L 7.675781 0 L 7.675781 -23.257812 L 2.65625 -23.257812 Z M 2.65625 0 "/></g></g></g><g fill="#152039" fill-opacity="1"><g transform="translate(192.178429, 66.427379)"><g><path d="M 17.375 -23.257812 L 17.375 -9.070312 L 7.175781 -23.257812 L 2.65625 -23.257812 L 2.65625 0 L 7.574219 0 L 7.574219 -14.519531 L 18.109375 0 L 22.328125 0 L 22.328125 -23.257812 Z M 17.375 -23.257812 "/></g></g></g><g fill="#152039" fill-opacity="1"><g transform="translate(223.807105, 66.427379)"><g><path d="M 18.671875 -23.257812 L 0.699219 -23.257812 L 0.699219 -18.574219 L 7.175781 -18.574219 L 7.175781 0 L 12.195312 0 L 12.195312 -18.574219 L 18.671875 -18.574219 Z M 18.671875 -23.257812 "/></g></g></g><g fill="#152039" fill-opacity="1"><g transform="translate(249.854359, 66.427379)"><g/></g></g><g fill="#152039" fill-opacity="1"><g transform="translate(264.439773, 66.427379)"><g><path d="M 17.507812 -8.371094 L 15.617188 -8.371094 L 15.617188 -13.621094 L 12.027344 -13.621094 L 11.261719 -8.371094 L 6.644531 -8.371094 L 12.492188 -22.09375 L 7.808594 -22.09375 L 0.53125 -5.082031 L 0.53125 -4.21875 L 11.128906 -4.21875 L 11.128906 0 L 15.617188 0 L 15.617188 -4.21875 L 17.507812 -4.21875 Z M 17.507812 -8.371094 "/></g></g></g><g fill="#0197b2" fill-opacity="1"><g transform="translate(94.398044, 93.427377)"><g><path d="M 4.960938 -9.953125 L 1.136719 -9.953125 L 1.136719 0 L 3.285156 0 L 3.285156 -3.101562 L 4.960938 -3.101562 C 6.96875 -3.101562 8.476562 -4.566406 8.476562 -6.527344 C 8.476562 -8.488281 6.953125 -9.953125 4.960938 -9.953125 Z M 4.863281 -5.089844 L 3.285156 -5.089844 L 3.285156 -7.949219 L 4.863281 -7.949219 C 5.714844 -7.949219 6.300781 -7.351562 6.300781 -6.527344 C 6.300781 -5.703125 5.714844 -5.089844 4.863281 -5.089844 Z M 4.863281 -5.089844 "/></g></g></g><g fill="#0197b2" fill-opacity="1"><g transform="translate(106.084933, 93.427377)"><g><path d="M 5.859375 0.226562 C 8.886719 0.226562 11.148438 -2.003906 11.148438 -4.976562 C 11.148438 -7.933594 8.886719 -10.167969 5.859375 -10.167969 C 2.816406 -10.167969 0.539062 -7.921875 0.539062 -4.976562 C 0.539062 -2.019531 2.816406 0.226562 5.859375 0.226562 Z M 5.859375 -1.804688 C 4.082031 -1.804688 2.730469 -3.183594 2.730469 -4.976562 C 2.730469 -6.769531 4.082031 -8.132812 5.859375 -8.132812 C 7.636719 -8.132812 8.957031 -6.78125 8.957031 -4.976562 C 8.957031 -3.171875 7.636719 -1.804688 5.859375 -1.804688 Z M 5.859375 -1.804688 "/></g></g></g><g fill="#0197b2" fill-opacity="1"><g transform="translate(120.628996, 93.427377)"><g><path d="M 7.4375 -9.953125 L 7.4375 -3.882812 L 3.070312 -9.953125 L 1.136719 -9.953125 L 1.136719 0 L 3.242188 0 L 3.242188 -6.214844 L 7.75 0 L 9.554688 0 L 9.554688 -9.953125 Z M 7.4375 -9.953125 "/></g></g></g><g fill="#0197b2" fill-opacity="1"><g transform="translate(134.163805, 93.427377)"><g><path d="M 7.992188 -9.953125 L 0.296875 -9.953125 L 0.296875 -7.949219 L 3.070312 -7.949219 L 3.070312 0 L 5.21875 0 L 5.21875 -7.949219 L 7.992188 -7.949219 Z M 7.992188 -9.953125 "/></g></g></g><g fill="#0197b2" fill-opacity="1"><g transform="translate(145.310533, 93.427377)"><g><path d="M 5.859375 0.226562 C 8.886719 0.226562 11.148438 -2.003906 11.148438 -4.976562 C 11.148438 -7.933594 8.886719 -10.167969 5.859375 -10.167969 C 2.816406 -10.167969 0.539062 -7.921875 0.539062 -4.976562 C 0.539062 -2.019531 2.816406 0.226562 5.859375 0.226562 Z M 5.859375 -1.804688 C 4.082031 -1.804688 2.730469 -3.183594 2.730469 -4.976562 C 2.730469 -6.769531 4.082031 -8.132812 5.859375 -8.132812 C 7.636719 -8.132812 8.957031 -6.78125 8.957031 -4.976562 C 8.957031 -3.171875 7.636719 -1.804688 5.859375 -1.804688 Z M 5.859375 -1.804688 "/></g></g></g><g fill="#0197b2" fill-opacity="1"><g transform="translate(159.854599, 93.427377)"><g><path d="M 4.4375 0.199219 C 6.5 0.199219 8.203125 -0.839844 8.203125 -2.984375 C 8.203125 -5.21875 6.300781 -5.6875 4.792969 -6.070312 C 3.726562 -6.328125 2.871094 -6.542969 2.871094 -7.238281 C 2.871094 -7.890625 3.570312 -8.191406 4.265625 -8.191406 C 5.078125 -8.191406 5.789062 -7.792969 5.789062 -6.925781 L 7.90625 -6.925781 C 7.90625 -8.914062 6.613281 -10.140625 4.324219 -10.140625 C 2.117188 -10.140625 0.710938 -9.058594 0.710938 -7.152344 C 0.710938 -5.003906 2.53125 -4.566406 4.039062 -4.195312 C 5.121094 -3.953125 6.027344 -3.738281 6.027344 -2.957031 C 6.027344 -2.21875 5.234375 -1.792969 4.421875 -1.792969 C 3.539062 -1.792969 2.746094 -2.261719 2.746094 -3.214844 L 0.570312 -3.214844 C 0.570312 -1.082031 2.148438 0.199219 4.4375 0.199219 Z M 4.4375 0.199219 "/></g></g></g><g fill="#0197b2" fill-opacity="1"><g transform="translate(171.498847, 93.427377)"><g/></g></g><g fill="#0197b2" fill-opacity="1"><g transform="translate(177.741462, 93.427377)"><g><path d="M 4.960938 -9.953125 L 1.136719 -9.953125 L 1.136719 0 L 3.285156 0 L 3.285156 -3.101562 L 4.960938 -3.101562 C 6.96875 -3.101562 8.476562 -4.566406 8.476562 -6.527344 C 8.476562 -8.488281 6.953125 -9.953125 4.960938 -9.953125 Z M 4.863281 -5.089844 L 3.285156 -5.089844 L 3.285156 -7.949219 L 4.863281 -7.949219 C 5.714844 -7.949219 6.300781 -7.351562 6.300781 -6.527344 C 6.300781 -5.703125 5.714844 -5.089844 4.863281 -5.089844 Z M 4.863281 -5.089844 "/></g></g></g><g fill="#0197b2" fill-opacity="1"><g transform="translate(189.428351, 93.427377)"><g><path d="M 6.613281 0 L 9.015625 0 L 6.8125 -3.753906 C 7.921875 -4.292969 8.632812 -5.347656 8.632812 -6.65625 C 8.632812 -8.574219 7.136719 -9.953125 5.148438 -9.953125 L 1.136719 -9.953125 L 1.136719 0 L 3.285156 0 L 3.285156 -3.382812 L 4.664062 -3.382812 Z M 3.285156 -7.964844 L 5.003906 -7.964844 C 5.914062 -7.964844 6.441406 -7.410156 6.441406 -6.667969 C 6.441406 -5.914062 5.914062 -5.375 5.003906 -5.375 L 3.285156 -5.375 Z M 3.285156 -7.964844 "/></g></g></g><g fill="#0197b2" fill-opacity="1"><g transform="translate(201.669609, 93.427377)"><g><path d="M 1.136719 0 L 3.285156 0 L 3.285156 -9.953125 L 1.136719 -9.953125 Z M 1.136719 0 "/></g></g></g><g fill="#0197b2" fill-opacity="1"><g transform="translate(208.949904, 93.427377)"><g><path d="M 7.4375 -9.953125 L 7.4375 -3.882812 L 3.070312 -9.953125 L 1.136719 -9.953125 L 1.136719 0 L 3.242188 0 L 3.242188 -6.214844 L 7.75 0 L 9.554688 0 L 9.554688 -9.953125 Z M 7.4375 -9.953125 "/></g></g></g><g fill="#0197b2" fill-opacity="1"><g transform="translate(222.484716, 93.427377)"><g><path d="M 5.703125 0.226562 C 8.164062 0.226562 10.097656 -1.421875 10.550781 -3.882812 L 8.375 -3.882812 C 8.019531 -2.628906 7.011719 -1.835938 5.703125 -1.835938 C 4.011719 -1.835938 2.746094 -3.171875 2.746094 -4.960938 C 2.746094 -6.753906 4.011719 -8.105469 5.703125 -8.105469 C 6.953125 -8.105469 7.949219 -7.367188 8.363281 -6.199219 L 10.507812 -6.199219 C 10.054688 -8.558594 8.121094 -10.167969 5.703125 -10.167969 C 2.773438 -10.167969 0.554688 -7.921875 0.554688 -4.960938 C 0.554688 -2.019531 2.773438 0.226562 5.703125 0.226562 Z M 5.703125 0.226562 "/></g></g></g><g fill="#0197b2" fill-opacity="1"><g transform="translate(236.289609, 93.427377)"><g><path d="M 1.136719 0 L 3.285156 0 L 3.285156 -9.953125 L 1.136719 -9.953125 Z M 1.136719 0 "/></g></g></g><g fill="#0197b2" fill-opacity="1"><g transform="translate(243.569905, 93.427377)"><g><path d="M 4.960938 -9.953125 L 1.136719 -9.953125 L 1.136719 0 L 3.285156 0 L 3.285156 -3.101562 L 4.960938 -3.101562 C 6.96875 -3.101562 8.476562 -4.566406 8.476562 -6.527344 C 8.476562 -8.488281 6.953125 -9.953125 4.960938 -9.953125 Z M 4.863281 -5.089844 L 3.285156 -5.089844 L 3.285156 -7.949219 L 4.863281 -7.949219 C 5.714844 -7.949219 6.300781 -7.351562 6.300781 -6.527344 C 6.300781 -5.703125 5.714844 -5.089844 4.863281 -5.089844 Z M 4.863281 -5.089844 "/></g></g></g><g fill="#0197b2" fill-opacity="1"><g transform="translate(255.256794, 93.427377)"><g><path d="M 7.734375 0 L 10.082031 0 L 6.058594 -9.953125 L 4.023438 -9.953125 L 0.113281 0 L 2.402344 0 L 3.085938 -1.878906 L 7.039062 -1.878906 Z M 5.0625 -7.324219 L 6.371094 -3.753906 L 3.753906 -3.753906 Z M 5.0625 -7.324219 "/></g></g></g><g fill="#0197b2" fill-opacity="1"><g transform="translate(268.30831, 93.427377)"><g><path d="M 1.136719 0 L 3.285156 0 L 3.285156 -9.953125 L 1.136719 -9.953125 Z M 1.136719 0 "/></g></g></g><g fill="#0197b2" fill-opacity="1"><g transform="translate(275.588606, 93.427377)"><g><path d="M 4.4375 0.199219 C 6.5 0.199219 8.203125 -0.839844 8.203125 -2.984375 C 8.203125 -5.21875 6.300781 -5.6875 4.792969 -6.070312 C 3.726562 -6.328125 2.871094 -6.542969 2.871094 -7.238281 C 2.871094 -7.890625 3.570312 -8.191406 4.265625 -8.191406 C 5.078125 -8.191406 5.789062 -7.792969 5.789062 -6.925781 L 7.90625 -6.925781 C 7.90625 -8.914062 6.613281 -10.140625 4.324219 -10.140625 C 2.117188 -10.140625 0.710938 -9.058594 0.710938 -7.152344 C 0.710938 -5.003906 2.53125 -4.566406 4.039062 -4.195312 C 5.121094 -3.953125 6.027344 -3.738281 6.027344 -2.957031 C 6.027344 -2.21875 5.234375 -1.792969 4.421875 -1.792969 C 3.539062 -1.792969 2.746094 -2.261719 2.746094 -3.214844 L 0.570312 -3.214844 C 0.570312 -1.082031 2.148438 0.199219 4.4375 0.199219 Z M 4.4375 0.199219 "/></g></g></g><g clip-path="url(#b6e31c98a2)"><g clip-path="url(#db8890550b)"><path fill="#0097b2" d="M 38.894531 235.882812 L 177.761719 235.882812 L 177.761719 337.25 L 38.894531 337.25 Z M 38.894531 235.882812 " fill-opacity="1" fill-rule="nonzero"/></g></g><g fill="#000000" fill-opacity="1"><g transform="translate(57.950732, 283.131896)"><g><path d="M 5.46875 -1.734375 L 1.78125 -1.734375 L 1.015625 0 L -0.015625 0 L 3.140625 -6.953125 L 4.125 -6.953125 L 7.28125 0 L 6.234375 0 Z M 5.125 -2.53125 L 3.625 -5.9375 L 2.125 -2.53125 Z M 5.125 -2.53125 "/></g></g></g><g fill="#000000" fill-opacity="1"><g transform="translate(65.225043, 283.131896)"><g><path d="M 1.9375 0.078125 C 1.519531 0.078125 1.128906 -0.0078125 0.765625 -0.1875 C 0.410156 -0.363281 0.125 -0.609375 -0.09375 -0.921875 L 0.484375 -1.59375 C 0.867188 -1.050781 1.351562 -0.78125 1.9375 -0.78125 C 2.332031 -0.78125 2.628906 -0.894531 2.828125 -1.125 C 3.023438 -1.363281 3.125 -1.71875 3.125 -2.1875 L 3.125 -6.09375 L 0.609375 -6.09375 L 0.609375 -6.953125 L 4.109375 -6.953125 L 4.109375 -2.234375 C 4.109375 -1.460938 3.925781 -0.882812 3.5625 -0.5 C 3.195312 -0.113281 2.65625 0.078125 1.9375 0.078125 Z M 1.9375 0.078125 "/></g></g></g><g fill="#000000" fill-opacity="1"><g transform="translate(70.323019, 283.131896)"><g><path d="M 3.921875 0.078125 C 2.992188 0.078125 2.269531 -0.1875 1.75 -0.71875 C 1.238281 -1.25 0.984375 -2.007812 0.984375 -3 L 0.984375 -6.953125 L 1.984375 -6.953125 L 1.984375 -3.046875 C 1.984375 -1.554688 2.632812 -0.8125 3.9375 -0.8125 C 4.570312 -0.8125 5.054688 -0.992188 5.390625 -1.359375 C 5.734375 -1.722656 5.90625 -2.285156 5.90625 -3.046875 L 5.90625 -6.953125 L 6.859375 -6.953125 L 6.859375 -3 C 6.859375 -2 6.597656 -1.234375 6.078125 -0.703125 C 5.566406 -0.179688 4.847656 0.078125 3.921875 0.078125 Z M 3.921875 0.078125 "/></g></g></g><g fill="#000000" fill-opacity="1"><g transform="translate(78.183645, 283.131896)"><g><path d="M 3.078125 0.078125 C 2.546875 0.078125 2.035156 0 1.546875 -0.15625 C 1.066406 -0.320312 0.6875 -0.535156 0.40625 -0.796875 L 0.78125 -1.5625 C 1.039062 -1.332031 1.378906 -1.140625 1.796875 -0.984375 C 2.210938 -0.835938 2.640625 -0.765625 3.078125 -0.765625 C 3.648438 -0.765625 4.078125 -0.859375 4.359375 -1.046875 C 4.648438 -1.242188 4.796875 -1.507812 4.796875 -1.84375 C 4.796875 -2.082031 4.71875 -2.273438 4.5625 -2.421875 C 4.40625 -2.566406 4.210938 -2.675781 3.984375 -2.75 C 3.753906 -2.832031 3.429688 -2.925781 3.015625 -3.03125 C 2.484375 -3.15625 2.054688 -3.28125 1.734375 -3.40625 C 1.421875 -3.53125 1.148438 -3.722656 0.921875 -3.984375 C 0.691406 -4.242188 0.578125 -4.597656 0.578125 -5.046875 C 0.578125 -5.421875 0.671875 -5.753906 0.859375 -6.046875 C 1.054688 -6.347656 1.351562 -6.585938 1.75 -6.765625 C 2.15625 -6.941406 2.648438 -7.03125 3.234375 -7.03125 C 3.648438 -7.03125 4.054688 -6.976562 4.453125 -6.875 C 4.847656 -6.769531 5.1875 -6.617188 5.46875 -6.421875 L 5.140625 -5.625 C 4.847656 -5.8125 4.535156 -5.953125 4.203125 -6.046875 C 3.878906 -6.140625 3.554688 -6.1875 3.234375 -6.1875 C 2.671875 -6.1875 2.25 -6.082031 1.96875 -5.875 C 1.6875 -5.675781 1.546875 -5.414062 1.546875 -5.09375 C 1.546875 -4.851562 1.625 -4.65625 1.78125 -4.5 C 1.945312 -4.351562 2.144531 -4.238281 2.375 -4.15625 C 2.613281 -4.070312 2.9375 -3.984375 3.34375 -3.890625 C 3.863281 -3.765625 4.28125 -3.640625 4.59375 -3.515625 C 4.914062 -3.390625 5.191406 -3.195312 5.421875 -2.9375 C 5.648438 -2.675781 5.765625 -2.328125 5.765625 -1.890625 C 5.765625 -1.523438 5.664062 -1.191406 5.46875 -0.890625 C 5.269531 -0.597656 4.96875 -0.363281 4.5625 -0.1875 C 4.15625 -0.0078125 3.660156 0.078125 3.078125 0.078125 Z M 3.078125 0.078125 "/></g></g></g><g fill="#000000" fill-opacity="1"><g transform="translate(84.354882, 283.131896)"><g><path d="M 2.421875 -6.09375 L 0.046875 -6.09375 L 0.046875 -6.953125 L 5.796875 -6.953125 L 5.796875 -6.09375 L 3.40625 -6.09375 L 3.40625 0 L 2.421875 0 Z M 2.421875 -6.09375 "/></g></g></g><g fill="#000000" fill-opacity="1"><g transform="translate(90.188244, 283.131896)"><g><path d="M 6.09375 -0.859375 L 6.09375 0 L 1.046875 0 L 1.046875 -6.953125 L 5.953125 -6.953125 L 5.953125 -6.09375 L 2.03125 -6.09375 L 2.03125 -3.953125 L 5.53125 -3.953125 L 5.53125 -3.109375 L 2.03125 -3.109375 L 2.03125 -0.859375 Z M 6.09375 -0.859375 "/></g></g></g><g fill="#000000" fill-opacity="1"><g transform="translate(96.846428, 283.131896)"><g><path d="M 3.078125 0.078125 C 2.546875 0.078125 2.035156 0 1.546875 -0.15625 C 1.066406 -0.320312 0.6875 -0.535156 0.40625 -0.796875 L 0.78125 -1.5625 C 1.039062 -1.332031 1.378906 -1.140625 1.796875 -0.984375 C 2.210938 -0.835938 2.640625 -0.765625 3.078125 -0.765625 C 3.648438 -0.765625 4.078125 -0.859375 4.359375 -1.046875 C 4.648438 -1.242188 4.796875 -1.507812 4.796875 -1.84375 C 4.796875 -2.082031 4.71875 -2.273438 4.5625 -2.421875 C 4.40625 -2.566406 4.210938 -2.675781 3.984375 -2.75 C 3.753906 -2.832031 3.429688 -2.925781 3.015625 -3.03125 C 2.484375 -3.15625 2.054688 -3.28125 1.734375 -3.40625 C 1.421875 -3.53125 1.148438 -3.722656 0.921875 -3.984375 C 0.691406 -4.242188 0.578125 -4.597656 0.578125 -5.046875 C 0.578125 -5.421875 0.671875 -5.753906 0.859375 -6.046875 C 1.054688 -6.347656 1.351562 -6.585938 1.75 -6.765625 C 2.15625 -6.941406 2.648438 -7.03125 3.234375 -7.03125 C 3.648438 -7.03125 4.054688 -6.976562 4.453125 -6.875 C 4.847656 -6.769531 5.1875 -6.617188 5.46875 -6.421875 L 5.140625 -5.625 C 4.847656 -5.8125 4.535156 -5.953125 4.203125 -6.046875 C 3.878906 -6.140625 3.554688 -6.1875 3.234375 -6.1875 C 2.671875 -6.1875 2.25 -6.082031 1.96875 -5.875 C 1.6875 -5.675781 1.546875 -5.414062 1.546875 -5.09375 C 1.546875 -4.851562 1.625 -4.65625 1.78125 -4.5 C 1.945312 -4.351562 2.144531 -4.238281 2.375 -4.15625 C 2.613281 -4.070312 2.9375 -3.984375 3.34375 -3.890625 C 3.863281 -3.765625 4.28125 -3.640625 4.59375 -3.515625 C 4.914062 -3.390625 5.191406 -3.195312 5.421875 -2.9375 C 5.648438 -2.675781 5.765625 -2.328125 5.765625 -1.890625 C 5.765625 -1.523438 5.664062 -1.191406 5.46875 -0.890625 C 5.269531 -0.597656 4.96875 -0.363281 4.5625 -0.1875 C 4.15625 -0.0078125 3.660156 0.078125 3.078125 0.078125 Z M 3.078125 0.078125 "/></g></g></g><g fill="#000000" fill-opacity="1"><g transform="translate(103.017666, 283.131896)"><g/></g></g><g fill="#000000" fill-opacity="1"><g transform="translate(105.690879, 283.131896)"><g><path d="M 2.03125 -6.09375 L 2.03125 -3.671875 L 5.53125 -3.671875 L 5.53125 -2.8125 L 2.03125 -2.8125 L 2.03125 0 L 1.046875 0 L 1.046875 -6.953125 L 5.953125 -6.953125 L 5.953125 -6.09375 Z M 2.03125 -6.09375 "/></g></g></g><g fill="#000000" fill-opacity="1"><g transform="translate(112.001243, 283.131896)"><g><path d="M 1.046875 -6.953125 L 2.03125 -6.953125 L 2.03125 0 L 1.046875 0 Z M 1.046875 -6.953125 "/></g></g></g><g fill="#000000" fill-opacity="1"><g transform="translate(115.081889, 283.131896)"><g><path d="M 7.03125 -6.953125 L 7.03125 0 L 6.21875 0 L 2.03125 -5.1875 L 2.03125 0 L 1.046875 0 L 1.046875 -6.953125 L 1.859375 -6.953125 L 6.03125 -1.765625 L 6.03125 -6.953125 Z M 7.03125 -6.953125 "/></g></g></g><g fill="#000000" fill-opacity="1"><g transform="translate(123.151209, 283.131896)"><g><path d="M 5.46875 -1.734375 L 1.78125 -1.734375 L 1.015625 0 L -0.015625 0 L 3.140625 -6.953125 L 4.125 -6.953125 L 7.28125 0 L 6.234375 0 Z M 5.125 -2.53125 L 3.625 -5.9375 L 2.125 -2.53125 Z M 5.125 -2.53125 "/></g></g></g><g fill="#000000" fill-opacity="1"><g transform="translate(130.42552, 283.131896)"><g><path d="M 1.046875 -6.953125 L 2.03125 -6.953125 L 2.03125 0 L 1.046875 0 Z M 1.046875 -6.953125 "/></g></g></g><g fill="#000000" fill-opacity="1"><g transform="translate(133.506166, 283.131896)"><g><path d="M 3.078125 0.078125 C 2.546875 0.078125 2.035156 0 1.546875 -0.15625 C 1.066406 -0.320312 0.6875 -0.535156 0.40625 -0.796875 L 0.78125 -1.5625 C 1.039062 -1.332031 1.378906 -1.140625 1.796875 -0.984375 C 2.210938 -0.835938 2.640625 -0.765625 3.078125 -0.765625 C 3.648438 -0.765625 4.078125 -0.859375 4.359375 -1.046875 C 4.648438 -1.242188 4.796875 -1.507812 4.796875 -1.84375 C 4.796875 -2.082031 4.71875 -2.273438 4.5625 -2.421875 C 4.40625 -2.566406 4.210938 -2.675781 3.984375 -2.75 C 3.753906 -2.832031 3.429688 -2.925781 3.015625 -3.03125 C 2.484375 -3.15625 2.054688 -3.28125 1.734375 -3.40625 C 1.421875 -3.53125 1.148438 -3.722656 0.921875 -3.984375 C 0.691406 -4.242188 0.578125 -4.597656 0.578125 -5.046875 C 0.578125 -5.421875 0.671875 -5.753906 0.859375 -6.046875 C 1.054688 -6.347656 1.351562 -6.585938 1.75 -6.765625 C 2.15625 -6.941406 2.648438 -7.03125 3.234375 -7.03125 C 3.648438 -7.03125 4.054688 -6.976562 4.453125 -6.875 C 4.847656 -6.769531 5.1875 -6.617188 5.46875 -6.421875 L 5.140625 -5.625 C 4.847656 -5.8125 4.535156 -5.953125 4.203125 -6.046875 C 3.878906 -6.140625 3.554688 -6.1875 3.234375 -6.1875 C 2.671875 -6.1875 2.25 -6.082031 1.96875 -5.875 C 1.6875 -5.675781 1.546875 -5.414062 1.546875 -5.09375 C 1.546875 -4.851562 1.625 -4.65625 1.78125 -4.5 C 1.945312 -4.351562 2.144531 -4.238281 2.375 -4.15625 C 2.613281 -4.070312 2.9375 -3.984375 3.34375 -3.890625 C 3.863281 -3.765625 4.28125 -3.640625 4.59375 -3.515625 C 4.914062 -3.390625 5.191406 -3.195312 5.421875 -2.9375 C 5.648438 -2.675781 5.765625 -2.328125 5.765625 -1.890625 C 5.765625 -1.523438 5.664062 -1.191406 5.46875 -0.890625 C 5.269531 -0.597656 4.96875 -0.363281 4.5625 -0.1875 C 4.15625 -0.0078125 3.660156 0.078125 3.078125 0.078125 Z M 3.078125 0.078125 "/></g></g></g><g fill="#000000" fill-opacity="1"><g transform="translate(139.677404, 283.131896)"><g/></g></g><g fill="#000000" fill-opacity="1"><g transform="translate(142.350617, 283.131896)"><g><path d="M 7.03125 -6.953125 L 7.03125 0 L 6.21875 0 L 2.03125 -5.1875 L 2.03125 0 L 1.046875 0 L 1.046875 -6.953125 L 1.859375 -6.953125 L 6.03125 -1.765625 L 6.03125 -6.953125 Z M 7.03125 -6.953125 "/></g></g></g><g fill="#000000" fill-opacity="1"><g transform="translate(150.419938, 283.131896)"><g><path d="M 4.1875 0.078125 C 3.476562 0.078125 2.84375 -0.0703125 2.28125 -0.375 C 1.71875 -0.6875 1.273438 -1.113281 0.953125 -1.65625 C 0.640625 -2.195312 0.484375 -2.804688 0.484375 -3.484375 C 0.484375 -4.148438 0.640625 -4.753906 0.953125 -5.296875 C 1.273438 -5.835938 1.71875 -6.257812 2.28125 -6.5625 C 2.84375 -6.875 3.476562 -7.03125 4.1875 -7.03125 C 4.882812 -7.03125 5.515625 -6.875 6.078125 -6.5625 C 6.640625 -6.257812 7.078125 -5.835938 7.390625 -5.296875 C 7.710938 -4.753906 7.875 -4.148438 7.875 -3.484375 C 7.875 -2.804688 7.710938 -2.195312 7.390625 -1.65625 C 7.078125 -1.113281 6.640625 -0.6875 6.078125 -0.375 C 5.515625 -0.0703125 4.882812 0.078125 4.1875 0.078125 Z M 4.1875 -0.8125 C 4.695312 -0.8125 5.15625 -0.925781 5.5625 -1.15625 C 5.96875 -1.382812 6.285156 -1.703125 6.515625 -2.109375 C 6.753906 -2.515625 6.875 -2.972656 6.875 -3.484375 C 6.875 -3.984375 6.753906 -4.4375 6.515625 -4.84375 C 6.285156 -5.25 5.96875 -5.566406 5.5625 -5.796875 C 5.15625 -6.035156 4.695312 -6.15625 4.1875 -6.15625 C 3.675781 -6.15625 3.210938 -6.035156 2.796875 -5.796875 C 2.378906 -5.566406 2.050781 -5.25 1.8125 -4.84375 C 1.582031 -4.4375 1.46875 -3.984375 1.46875 -3.484375 C 1.46875 -2.972656 1.582031 -2.515625 1.8125 -2.109375 C 2.050781 -1.703125 2.378906 -1.382812 2.796875 -1.15625 C 3.210938 -0.925781 3.675781 -0.8125 4.1875 -0.8125 Z M 4.1875 -0.8125 "/></g></g></g><g fill="#000000" fill-opacity="1"><g transform="translate(81.423387, 296.631895)"><g><path d="M 3.75 -6.953125 C 4.65625 -6.953125 5.363281 -6.738281 5.875 -6.3125 C 6.394531 -5.882812 6.65625 -5.289062 6.65625 -4.53125 C 6.65625 -3.78125 6.394531 -3.1875 5.875 -2.75 C 5.363281 -2.320312 4.65625 -2.109375 3.75 -2.109375 L 2.03125 -2.109375 L 2.03125 0 L 1.046875 0 L 1.046875 -6.953125 Z M 3.734375 -2.96875 C 4.359375 -2.96875 4.835938 -3.101562 5.171875 -3.375 C 5.503906 -3.644531 5.671875 -4.03125 5.671875 -4.53125 C 5.671875 -5.03125 5.503906 -5.414062 5.171875 -5.6875 C 4.835938 -5.957031 4.359375 -6.09375 3.734375 -6.09375 L 2.03125 -6.09375 L 2.03125 -2.96875 Z M 3.734375 -2.96875 "/></g></g></g><g fill="#000000" fill-opacity="1"><g transform="translate(88.598317, 296.631895)"><g><path d="M 4.1875 0.078125 C 3.476562 0.078125 2.84375 -0.0703125 2.28125 -0.375 C 1.71875 -0.6875 1.273438 -1.113281 0.953125 -1.65625 C 0.640625 -2.195312 0.484375 -2.804688 0.484375 -3.484375 C 0.484375 -4.148438 0.640625 -4.753906 0.953125 -5.296875 C 1.273438 -5.835938 1.71875 -6.257812 2.28125 -6.5625 C 2.84375 -6.875 3.476562 -7.03125 4.1875 -7.03125 C 4.882812 -7.03125 5.515625 -6.875 6.078125 -6.5625 C 6.640625 -6.257812 7.078125 -5.835938 7.390625 -5.296875 C 7.710938 -4.753906 7.875 -4.148438 7.875 -3.484375 C 7.875 -2.804688 7.710938 -2.195312 7.390625 -1.65625 C 7.078125 -1.113281 6.640625 -0.6875 6.078125 -0.375 C 5.515625 -0.0703125 4.882812 0.078125 4.1875 0.078125 Z M 4.1875 -0.8125 C 4.695312 -0.8125 5.15625 -0.925781 5.5625 -1.15625 C 5.96875 -1.382812 6.285156 -1.703125 6.515625 -2.109375 C 6.753906 -2.515625 6.875 -2.972656 6.875 -3.484375 C 6.875 -3.984375 6.753906 -4.4375 6.515625 -4.84375 C 6.285156 -5.25 5.96875 -5.566406 5.5625 -5.796875 C 5.15625 -6.035156 4.695312 -6.15625 4.1875 -6.15625 C 3.675781 -6.15625 3.210938 -6.035156 2.796875 -5.796875 C 2.378906 -5.566406 2.050781 -5.25 1.8125 -4.84375 C 1.582031 -4.4375 1.46875 -3.984375 1.46875 -3.484375 C 1.46875 -2.972656 1.582031 -2.515625 1.8125 -2.109375 C 2.050781 -1.703125 2.378906 -1.382812 2.796875 -1.15625 C 3.210938 -0.925781 3.675781 -0.8125 4.1875 -0.8125 Z M 4.1875 -0.8125 "/></g></g></g><g fill="#000000" fill-opacity="1"><g transform="translate(96.945889, 296.631895)"><g><path d="M 10.875 -6.953125 L 8.546875 0 L 7.5 0 L 5.609375 -5.5625 L 3.703125 0 L 2.640625 0 L 0.3125 -6.953125 L 1.34375 -6.953125 L 3.21875 -1.296875 L 5.171875 -6.953125 L 6.09375 -6.953125 L 8.015625 -1.265625 L 9.921875 -6.953125 Z M 10.875 -6.953125 "/></g></g></g><g fill="#000000" fill-opacity="1"><g transform="translate(108.135612, 296.631895)"><g><path d="M 6.09375 -0.859375 L 6.09375 0 L 1.046875 0 L 1.046875 -6.953125 L 5.953125 -6.953125 L 5.953125 -6.09375 L 2.03125 -6.09375 L 2.03125 -3.953125 L 5.53125 -3.953125 L 5.53125 -3.109375 L 2.03125 -3.109375 L 2.03125 -0.859375 Z M 6.09375 -0.859375 "/></g></g></g><g fill="#000000" fill-opacity="1"><g transform="translate(114.793795, 296.631895)"><g><path d="M 5.6875 0 L 4.1875 -2.140625 C 4.007812 -2.117188 3.863281 -2.109375 3.75 -2.109375 L 2.03125 -2.109375 L 2.03125 0 L 1.046875 0 L 1.046875 -6.953125 L 3.75 -6.953125 C 4.65625 -6.953125 5.363281 -6.738281 5.875 -6.3125 C 6.394531 -5.882812 6.65625 -5.289062 6.65625 -4.53125 C 6.65625 -4 6.519531 -3.539062 6.25 -3.15625 C 5.988281 -2.78125 5.613281 -2.503906 5.125 -2.328125 L 6.78125 0 Z M 3.734375 -2.96875 C 4.359375 -2.96875 4.835938 -3.101562 5.171875 -3.375 C 5.503906 -3.644531 5.671875 -4.03125 5.671875 -4.53125 C 5.671875 -5.03125 5.503906 -5.414062 5.171875 -5.6875 C 4.835938 -5.957031 4.359375 -6.09375 3.734375 -6.09375 L 2.03125 -6.09375 L 2.03125 -2.96875 Z M 3.734375 -2.96875 "/></g></g></g><g fill="#000000" fill-opacity="1"><g transform="translate(122.018416, 296.631895)"><g/></g></g><g fill="#000000" fill-opacity="1"><g transform="translate(124.69163, 296.631895)"><g><path d="M 5.71875 -3.609375 C 6.125 -3.492188 6.441406 -3.285156 6.671875 -2.984375 C 6.910156 -2.691406 7.03125 -2.320312 7.03125 -1.875 C 7.03125 -1.269531 6.800781 -0.804688 6.34375 -0.484375 C 5.894531 -0.160156 5.234375 0 4.359375 0 L 1.046875 0 L 1.046875 -6.953125 L 4.15625 -6.953125 C 4.957031 -6.953125 5.570312 -6.789062 6 -6.46875 C 6.4375 -6.15625 6.65625 -5.71875 6.65625 -5.15625 C 6.65625 -4.789062 6.570312 -4.472656 6.40625 -4.203125 C 6.238281 -3.941406 6.007812 -3.742188 5.71875 -3.609375 Z M 2.03125 -6.15625 L 2.03125 -3.921875 L 4.078125 -3.921875 C 4.585938 -3.921875 4.976562 -4.015625 5.25 -4.203125 C 5.53125 -4.390625 5.671875 -4.664062 5.671875 -5.03125 C 5.671875 -5.394531 5.53125 -5.671875 5.25 -5.859375 C 4.976562 -6.054688 4.585938 -6.15625 4.078125 -6.15625 Z M 4.328125 -0.8125 C 4.890625 -0.8125 5.3125 -0.898438 5.59375 -1.078125 C 5.875 -1.265625 6.015625 -1.554688 6.015625 -1.953125 C 6.015625 -2.734375 5.453125 -3.125 4.328125 -3.125 L 2.03125 -3.125 L 2.03125 -0.8125 Z M 4.328125 -0.8125 "/></g></g></g><g fill="#000000" fill-opacity="1"><g transform="translate(132.21438, 296.631895)"><g><path d="M 1.046875 -6.953125 L 2.03125 -6.953125 L 2.03125 0 L 1.046875 0 Z M 1.046875 -6.953125 "/></g></g></g><g clip-path="url(#9e095841c0)"><g clip-path="url(#a098f119e7)"><path fill="#0097b2" d="M 198.554688 109.9375 L 337.421875 109.9375 L 337.421875 204.273438 L 198.554688 204.273438 Z M 198.554688 109.9375 " fill-opacity="1" fill-rule="nonzero"/></g></g><g fill="#000000" fill-opacity="1"><g transform="translate(231.541322, 153.438506)"><g><path d="M 4.15625 0.078125 C 3.457031 0.078125 2.828125 -0.0703125 2.265625 -0.375 C 1.710938 -0.6875 1.273438 -1.113281 0.953125 -1.65625 C 0.640625 -2.195312 0.484375 -2.804688 0.484375 -3.484375 C 0.484375 -4.148438 0.640625 -4.753906 0.953125 -5.296875 C 1.273438 -5.835938 1.71875 -6.257812 2.28125 -6.5625 C 2.84375 -6.875 3.46875 -7.03125 4.15625 -7.03125 C 4.707031 -7.03125 5.207031 -6.9375 5.65625 -6.75 C 6.101562 -6.570312 6.488281 -6.304688 6.8125 -5.953125 L 6.15625 -5.328125 C 5.632812 -5.878906 4.984375 -6.15625 4.203125 -6.15625 C 3.679688 -6.15625 3.210938 -6.035156 2.796875 -5.796875 C 2.378906 -5.566406 2.050781 -5.25 1.8125 -4.84375 C 1.582031 -4.4375 1.46875 -3.984375 1.46875 -3.484375 C 1.46875 -2.972656 1.582031 -2.515625 1.8125 -2.109375 C 2.050781 -1.703125 2.378906 -1.382812 2.796875 -1.15625 C 3.210938 -0.925781 3.679688 -0.8125 4.203125 -0.8125 C 4.972656 -0.8125 5.625 -1.085938 6.15625 -1.640625 L 6.8125 -1.015625 C 6.488281 -0.660156 6.097656 -0.390625 5.640625 -0.203125 C 5.191406 -0.015625 4.695312 0.078125 4.15625 0.078125 Z M 4.15625 0.078125 "/></g></g></g><g fill="#000000" fill-opacity="1"><g transform="translate(238.726197, 153.438506)"><g><path d="M 5.6875 0 L 4.1875 -2.140625 C 4.007812 -2.117188 3.863281 -2.109375 3.75 -2.109375 L 2.03125 -2.109375 L 2.03125 0 L 1.046875 0 L 1.046875 -6.953125 L 3.75 -6.953125 C 4.65625 -6.953125 5.363281 -6.738281 5.875 -6.3125 C 6.394531 -5.882812 6.65625 -5.289062 6.65625 -4.53125 C 6.65625 -4 6.519531 -3.539062 6.25 -3.15625 C 5.988281 -2.78125 5.613281 -2.503906 5.125 -2.328125 L 6.78125 0 Z M 3.734375 -2.96875 C 4.359375 -2.96875 4.835938 -3.101562 5.171875 -3.375 C 5.503906 -3.644531 5.671875 -4.03125 5.671875 -4.53125 C 5.671875 -5.03125 5.503906 -5.414062 5.171875 -5.6875 C 4.835938 -5.957031 4.359375 -6.09375 3.734375 -6.09375 L 2.03125 -6.09375 L 2.03125 -2.96875 Z M 3.734375 -2.96875 "/></g></g></g><g fill="#000000" fill-opacity="1"><g transform="translate(245.950817, 153.438506)"><g><path d="M 1.046875 -6.953125 L 2.03125 -6.953125 L 2.03125 0 L 1.046875 0 Z M 1.046875 -6.953125 "/></g></g></g><g fill="#000000" fill-opacity="1"><g transform="translate(249.031463, 153.438506)"><g><path d="M 5.46875 -1.734375 L 1.78125 -1.734375 L 1.015625 0 L -0.015625 0 L 3.140625 -6.953125 L 4.125 -6.953125 L 7.28125 0 L 6.234375 0 Z M 5.125 -2.53125 L 3.625 -5.9375 L 2.125 -2.53125 Z M 5.125 -2.53125 "/></g></g></g><g fill="#000000" fill-opacity="1"><g transform="translate(256.305774, 153.438506)"><g><path d="M 4.15625 0.078125 C 3.457031 0.078125 2.828125 -0.0703125 2.265625 -0.375 C 1.710938 -0.6875 1.273438 -1.113281 0.953125 -1.65625 C 0.640625 -2.195312 0.484375 -2.804688 0.484375 -3.484375 C 0.484375 -4.148438 0.640625 -4.753906 0.953125 -5.296875 C 1.273438 -5.835938 1.71875 -6.257812 2.28125 -6.5625 C 2.84375 -6.875 3.46875 -7.03125 4.15625 -7.03125 C 4.707031 -7.03125 5.207031 -6.9375 5.65625 -6.75 C 6.101562 -6.570312 6.488281 -6.304688 6.8125 -5.953125 L 6.15625 -5.328125 C 5.632812 -5.878906 4.984375 -6.15625 4.203125 -6.15625 C 3.679688 -6.15625 3.210938 -6.035156 2.796875 -5.796875 C 2.378906 -5.566406 2.050781 -5.25 1.8125 -4.84375 C 1.582031 -4.4375 1.46875 -3.984375 1.46875 -3.484375 C 1.46875 -2.972656 1.582031 -2.515625 1.8125 -2.109375 C 2.050781 -1.703125 2.378906 -1.382812 2.796875 -1.15625 C 3.210938 -0.925781 3.679688 -0.8125 4.203125 -0.8125 C 4.972656 -0.8125 5.625 -1.085938 6.15625 -1.640625 L 6.8125 -1.015625 C 6.488281 -0.660156 6.097656 -0.390625 5.640625 -0.203125 C 5.191406 -0.015625 4.695312 0.078125 4.15625 0.078125 Z M 3.734375 2.21875 C 3.390625 2.21875 3.097656 2.144531 2.859375 2 L 3.0625 1.515625 C 3.257812 1.628906 3.484375 1.6875 3.734375 1.6875 C 4.109375 1.6875 4.296875 1.554688 4.296875 1.296875 C 4.296875 1.171875 4.25 1.070312 4.15625 1 C 4.0625 0.9375 3.921875 0.90625 3.734375 0.90625 L 3.453125 0.90625 L 3.703125 -0.0625 L 4.25 -0.0625 L 4.109375 0.5 C 4.390625 0.519531 4.601562 0.601562 4.75 0.75 C 4.894531 0.90625 4.96875 1.097656 4.96875 1.328125 C 4.96875 1.597656 4.851562 1.8125 4.625 1.96875 C 4.40625 2.132812 4.109375 2.21875 3.734375 2.21875 Z M 3.734375 2.21875 "/></g></g></g><g fill="#000000" fill-opacity="1"><g transform="translate(263.490649, 153.438506)"><g><path d="M 5.46875 -1.734375 L 1.78125 -1.734375 L 1.015625 0 L -0.015625 0 L 3.140625 -6.953125 L 4.125 -6.953125 L 7.28125 0 L 6.234375 0 Z M 5.125 -2.53125 L 3.625 -5.9375 L 2.125 -2.53125 Z M 4.34375 -7.546875 C 4.175781 -7.546875 4.035156 -7.578125 3.921875 -7.640625 C 3.804688 -7.710938 3.664062 -7.816406 3.5 -7.953125 C 3.394531 -8.046875 3.304688 -8.113281 3.234375 -8.15625 C 3.160156 -8.195312 3.085938 -8.21875 3.015625 -8.21875 C 2.867188 -8.21875 2.75 -8.160156 2.65625 -8.046875 C 2.5625 -7.941406 2.515625 -7.796875 2.515625 -7.609375 L 1.96875 -7.609375 C 1.988281 -7.972656 2.082031 -8.265625 2.25 -8.484375 C 2.425781 -8.703125 2.660156 -8.8125 2.953125 -8.8125 C 3.109375 -8.8125 3.242188 -8.773438 3.359375 -8.703125 C 3.484375 -8.640625 3.628906 -8.539062 3.796875 -8.40625 C 3.910156 -8.3125 4 -8.242188 4.0625 -8.203125 C 4.125 -8.160156 4.191406 -8.140625 4.265625 -8.140625 C 4.410156 -8.140625 4.53125 -8.191406 4.625 -8.296875 C 4.71875 -8.398438 4.769531 -8.546875 4.78125 -8.734375 L 5.3125 -8.734375 C 5.300781 -8.378906 5.207031 -8.09375 5.03125 -7.875 C 4.851562 -7.65625 4.625 -7.546875 4.34375 -7.546875 Z M 4.34375 -7.546875 "/></g></g></g><g fill="#000000" fill-opacity="1"><g transform="translate(270.76496, 153.438506)"><g><path d="M 4.1875 0.078125 C 3.476562 0.078125 2.84375 -0.0703125 2.28125 -0.375 C 1.71875 -0.6875 1.273438 -1.113281 0.953125 -1.65625 C 0.640625 -2.195312 0.484375 -2.804688 0.484375 -3.484375 C 0.484375 -4.148438 0.640625 -4.753906 0.953125 -5.296875 C 1.273438 -5.835938 1.71875 -6.257812 2.28125 -6.5625 C 2.84375 -6.875 3.476562 -7.03125 4.1875 -7.03125 C 4.882812 -7.03125 5.515625 -6.875 6.078125 -6.5625 C 6.640625 -6.257812 7.078125 -5.835938 7.390625 -5.296875 C 7.710938 -4.753906 7.875 -4.148438 7.875 -3.484375 C 7.875 -2.804688 7.710938 -2.195312 7.390625 -1.65625 C 7.078125 -1.113281 6.640625 -0.6875 6.078125 -0.375 C 5.515625 -0.0703125 4.882812 0.078125 4.1875 0.078125 Z M 4.1875 -0.8125 C 4.695312 -0.8125 5.15625 -0.925781 5.5625 -1.15625 C 5.96875 -1.382812 6.285156 -1.703125 6.515625 -2.109375 C 6.753906 -2.515625 6.875 -2.972656 6.875 -3.484375 C 6.875 -3.984375 6.753906 -4.4375 6.515625 -4.84375 C 6.285156 -5.25 5.96875 -5.566406 5.5625 -5.796875 C 5.15625 -6.035156 4.695312 -6.15625 4.1875 -6.15625 C 3.675781 -6.15625 3.210938 -6.035156 2.796875 -5.796875 C 2.378906 -5.566406 2.050781 -5.25 1.8125 -4.84375 C 1.582031 -4.4375 1.46875 -3.984375 1.46875 -3.484375 C 1.46875 -2.972656 1.582031 -2.515625 1.8125 -2.109375 C 2.050781 -1.703125 2.378906 -1.382812 2.796875 -1.15625 C 3.210938 -0.925781 3.675781 -0.8125 4.1875 -0.8125 Z M 4.1875 -0.8125 "/></g></g></g><g fill="#000000" fill-opacity="1"><g transform="translate(279.112531, 153.438506)"><g/></g></g><g fill="#000000" fill-opacity="1"><g transform="translate(281.785745, 153.438506)"><g><path d="M 1.046875 -6.953125 L 3.96875 -6.953125 C 4.707031 -6.953125 5.359375 -6.804688 5.921875 -6.515625 C 6.492188 -6.222656 6.9375 -5.8125 7.25 -5.28125 C 7.570312 -4.757812 7.734375 -4.160156 7.734375 -3.484375 C 7.734375 -2.796875 7.570312 -2.1875 7.25 -1.65625 C 6.9375 -1.132812 6.492188 -0.726562 5.921875 -0.4375 C 5.359375 -0.144531 4.707031 0 3.96875 0 L 1.046875 0 Z M 3.921875 -0.859375 C 4.484375 -0.859375 4.976562 -0.96875 5.40625 -1.1875 C 5.832031 -1.40625 6.160156 -1.710938 6.390625 -2.109375 C 6.617188 -2.503906 6.734375 -2.960938 6.734375 -3.484375 C 6.734375 -3.992188 6.617188 -4.445312 6.390625 -4.84375 C 6.160156 -5.238281 5.832031 -5.546875 5.40625 -5.765625 C 4.976562 -5.984375 4.484375 -6.09375 3.921875 -6.09375 L 2.03125 -6.09375 L 2.03125 -0.859375 Z M 3.921875 -0.859375 "/></g></g></g><g fill="#000000" fill-opacity="1"><g transform="translate(289.994191, 153.438506)"><g><path d="M 4.1875 0.078125 C 3.476562 0.078125 2.84375 -0.0703125 2.28125 -0.375 C 1.71875 -0.6875 1.273438 -1.113281 0.953125 -1.65625 C 0.640625 -2.195312 0.484375 -2.804688 0.484375 -3.484375 C 0.484375 -4.148438 0.640625 -4.753906 0.953125 -5.296875 C 1.273438 -5.835938 1.71875 -6.257812 2.28125 -6.5625 C 2.84375 -6.875 3.476562 -7.03125 4.1875 -7.03125 C 4.882812 -7.03125 5.515625 -6.875 6.078125 -6.5625 C 6.640625 -6.257812 7.078125 -5.835938 7.390625 -5.296875 C 7.710938 -4.753906 7.875 -4.148438 7.875 -3.484375 C 7.875 -2.804688 7.710938 -2.195312 7.390625 -1.65625 C 7.078125 -1.113281 6.640625 -0.6875 6.078125 -0.375 C 5.515625 -0.0703125 4.882812 0.078125 4.1875 0.078125 Z M 4.1875 -0.8125 C 4.695312 -0.8125 5.15625 -0.925781 5.5625 -1.15625 C 5.96875 -1.382812 6.285156 -1.703125 6.515625 -2.109375 C 6.753906 -2.515625 6.875 -2.972656 6.875 -3.484375 C 6.875 -3.984375 6.753906 -4.4375 6.515625 -4.84375 C 6.285156 -5.25 5.96875 -5.566406 5.5625 -5.796875 C 5.15625 -6.035156 4.695312 -6.15625 4.1875 -6.15625 C 3.675781 -6.15625 3.210938 -6.035156 2.796875 -5.796875 C 2.378906 -5.566406 2.050781 -5.25 1.8125 -4.84375 C 1.582031 -4.4375 1.46875 -3.984375 1.46875 -3.484375 C 1.46875 -2.972656 1.582031 -2.515625 1.8125 -2.109375 C 2.050781 -1.703125 2.378906 -1.382812 2.796875 -1.15625 C 3.210938 -0.925781 3.675781 -0.8125 4.1875 -0.8125 Z M 4.1875 -0.8125 "/></g></g></g><g fill="#000000" fill-opacity="1"><g transform="translate(298.341763, 153.438506)"><g><path d="M 3.078125 0.078125 C 2.546875 0.078125 2.035156 0 1.546875 -0.15625 C 1.066406 -0.320312 0.6875 -0.535156 0.40625 -0.796875 L 0.78125 -1.5625 C 1.039062 -1.332031 1.378906 -1.140625 1.796875 -0.984375 C 2.210938 -0.835938 2.640625 -0.765625 3.078125 -0.765625 C 3.648438 -0.765625 4.078125 -0.859375 4.359375 -1.046875 C 4.648438 -1.242188 4.796875 -1.507812 4.796875 -1.84375 C 4.796875 -2.082031 4.71875 -2.273438 4.5625 -2.421875 C 4.40625 -2.566406 4.210938 -2.675781 3.984375 -2.75 C 3.753906 -2.832031 3.429688 -2.925781 3.015625 -3.03125 C 2.484375 -3.15625 2.054688 -3.28125 1.734375 -3.40625 C 1.421875 -3.53125 1.148438 -3.722656 0.921875 -3.984375 C 0.691406 -4.242188 0.578125 -4.597656 0.578125 -5.046875 C 0.578125 -5.421875 0.671875 -5.753906 0.859375 -6.046875 C 1.054688 -6.347656 1.351562 -6.585938 1.75 -6.765625 C 2.15625 -6.941406 2.648438 -7.03125 3.234375 -7.03125 C 3.648438 -7.03125 4.054688 -6.976562 4.453125 -6.875 C 4.847656 -6.769531 5.1875 -6.617188 5.46875 -6.421875 L 5.140625 -5.625 C 4.847656 -5.8125 4.535156 -5.953125 4.203125 -6.046875 C 3.878906 -6.140625 3.554688 -6.1875 3.234375 -6.1875 C 2.671875 -6.1875 2.25 -6.082031 1.96875 -5.875 C 1.6875 -5.675781 1.546875 -5.414062 1.546875 -5.09375 C 1.546875 -4.851562 1.625 -4.65625 1.78125 -4.5 C 1.945312 -4.351562 2.144531 -4.238281 2.375 -4.15625 C 2.613281 -4.070312 2.9375 -3.984375 3.34375 -3.890625 C 3.863281 -3.765625 4.28125 -3.640625 4.59375 -3.515625 C 4.914062 -3.390625 5.191406 -3.195312 5.421875 -2.9375 C 5.648438 -2.675781 5.765625 -2.328125 5.765625 -1.890625 C 5.765625 -1.523438 5.664062 -1.191406 5.46875 -0.890625 C 5.269531 -0.597656 4.96875 -0.363281 4.5625 -0.1875 C 4.15625 -0.0078125 3.660156 0.078125 3.078125 0.078125 Z M 3.078125 0.078125 "/></g></g></g><g fill="#000000" fill-opacity="1"><g transform="translate(237.154603, 166.938505)"><g><path d="M 3.75 -6.953125 C 4.65625 -6.953125 5.363281 -6.738281 5.875 -6.3125 C 6.394531 -5.882812 6.65625 -5.289062 6.65625 -4.53125 C 6.65625 -3.78125 6.394531 -3.1875 5.875 -2.75 C 5.363281 -2.320312 4.65625 -2.109375 3.75 -2.109375 L 2.03125 -2.109375 L 2.03125 0 L 1.046875 0 L 1.046875 -6.953125 Z M 3.734375 -2.96875 C 4.359375 -2.96875 4.835938 -3.101562 5.171875 -3.375 C 5.503906 -3.644531 5.671875 -4.03125 5.671875 -4.53125 C 5.671875 -5.03125 5.503906 -5.414062 5.171875 -5.6875 C 4.835938 -5.957031 4.359375 -6.09375 3.734375 -6.09375 L 2.03125 -6.09375 L 2.03125 -2.96875 Z M 3.734375 -2.96875 "/></g></g></g><g fill="#000000" fill-opacity="1"><g transform="translate(244.329533, 166.938505)"><g><path d="M 5.46875 -1.734375 L 1.78125 -1.734375 L 1.015625 0 L -0.015625 0 L 3.140625 -6.953125 L 4.125 -6.953125 L 7.28125 0 L 6.234375 0 Z M 5.125 -2.53125 L 3.625 -5.9375 L 2.125 -2.53125 Z M 5.125 -2.53125 "/></g></g></g><g fill="#000000" fill-opacity="1"><g transform="translate(251.603843, 166.938505)"><g><path d="M 7.03125 -6.953125 L 7.03125 0 L 6.21875 0 L 2.03125 -5.1875 L 2.03125 0 L 1.046875 0 L 1.046875 -6.953125 L 1.859375 -6.953125 L 6.03125 -1.765625 L 6.03125 -6.953125 Z M 7.03125 -6.953125 "/></g></g></g><g fill="#000000" fill-opacity="1"><g transform="translate(259.673163, 166.938505)"><g><path d="M 2.03125 -6.09375 L 2.03125 -3.671875 L 5.53125 -3.671875 L 5.53125 -2.8125 L 2.03125 -2.8125 L 2.03125 0 L 1.046875 0 L 1.046875 -6.953125 L 5.953125 -6.953125 L 5.953125 -6.09375 Z M 2.03125 -6.09375 "/></g></g></g><g fill="#000000" fill-opacity="1"><g transform="translate(265.983527, 166.938505)"><g><path d="M 1.046875 -6.953125 L 2.03125 -6.953125 L 2.03125 -0.859375 L 5.796875 -0.859375 L 5.796875 0 L 1.046875 0 Z M 1.046875 -6.953125 "/></g></g></g><g fill="#000000" fill-opacity="1"><g transform="translate(271.886446, 166.938505)"><g><path d="M 6.09375 -0.859375 L 6.09375 0 L 1.046875 0 L 1.046875 -6.953125 L 5.953125 -6.953125 L 5.953125 -6.09375 L 2.03125 -6.09375 L 2.03125 -3.953125 L 5.53125 -3.953125 L 5.53125 -3.109375 L 2.03125 -3.109375 L 2.03125 -0.859375 Z M 6.09375 -0.859375 "/></g></g></g><g fill="#000000" fill-opacity="1"><g transform="translate(278.54463, 166.938505)"><g><path d="M 2.421875 -6.09375 L 0.046875 -6.09375 L 0.046875 -6.953125 L 5.796875 -6.953125 L 5.796875 -6.09375 L 3.40625 -6.09375 L 3.40625 0 L 2.421875 0 Z M 2.421875 -6.09375 "/></g></g></g><g fill="#000000" fill-opacity="1"><g transform="translate(284.377992, 166.938505)"><g><path d="M 4.1875 0.078125 C 3.476562 0.078125 2.84375 -0.0703125 2.28125 -0.375 C 1.71875 -0.6875 1.273438 -1.113281 0.953125 -1.65625 C 0.640625 -2.195312 0.484375 -2.804688 0.484375 -3.484375 C 0.484375 -4.148438 0.640625 -4.753906 0.953125 -5.296875 C 1.273438 -5.835938 1.71875 -6.257812 2.28125 -6.5625 C 2.84375 -6.875 3.476562 -7.03125 4.1875 -7.03125 C 4.882812 -7.03125 5.515625 -6.875 6.078125 -6.5625 C 6.640625 -6.257812 7.078125 -5.835938 7.390625 -5.296875 C 7.710938 -4.753906 7.875 -4.148438 7.875 -3.484375 C 7.875 -2.804688 7.710938 -2.195312 7.390625 -1.65625 C 7.078125 -1.113281 6.640625 -0.6875 6.078125 -0.375 C 5.515625 -0.0703125 4.882812 0.078125 4.1875 0.078125 Z M 4.1875 -0.8125 C 4.695312 -0.8125 5.15625 -0.925781 5.5625 -1.15625 C 5.96875 -1.382812 6.285156 -1.703125 6.515625 -2.109375 C 6.753906 -2.515625 6.875 -2.972656 6.875 -3.484375 C 6.875 -3.984375 6.753906 -4.4375 6.515625 -4.84375 C 6.285156 -5.25 5.96875 -5.566406 5.5625 -5.796875 C 5.15625 -6.035156 4.695312 -6.15625 4.1875 -6.15625 C 3.675781 -6.15625 3.210938 -6.035156 2.796875 -5.796875 C 2.378906 -5.566406 2.050781 -5.25 1.8125 -4.84375 C 1.582031 -4.4375 1.46875 -3.984375 1.46875 -3.484375 C 1.46875 -2.972656 1.582031 -2.515625 1.8125 -2.109375 C 2.050781 -1.703125 2.378906 -1.382812 2.796875 -1.15625 C 3.210938 -0.925781 3.675781 -0.8125 4.1875 -0.8125 Z M 4.1875 -0.8125 "/></g></g></g><g fill="#000000" fill-opacity="1"><g transform="translate(292.725564, 166.938505)"><g><path d="M 3.078125 0.078125 C 2.546875 0.078125 2.035156 0 1.546875 -0.15625 C 1.066406 -0.320312 0.6875 -0.535156 0.40625 -0.796875 L 0.78125 -1.5625 C 1.039062 -1.332031 1.378906 -1.140625 1.796875 -0.984375 C 2.210938 -0.835938 2.640625 -0.765625 3.078125 -0.765625 C 3.648438 -0.765625 4.078125 -0.859375 4.359375 -1.046875 C 4.648438 -1.242188 4.796875 -1.507812 4.796875 -1.84375 C 4.796875 -2.082031 4.71875 -2.273438 4.5625 -2.421875 C 4.40625 -2.566406 4.210938 -2.675781 3.984375 -2.75 C 3.753906 -2.832031 3.429688 -2.925781 3.015625 -3.03125 C 2.484375 -3.15625 2.054688 -3.28125 1.734375 -3.40625 C 1.421875 -3.53125 1.148438 -3.722656 0.921875 -3.984375 C 0.691406 -4.242188 0.578125 -4.597656 0.578125 -5.046875 C 0.578125 -5.421875 0.671875 -5.753906 0.859375 -6.046875 C 1.054688 -6.347656 1.351562 -6.585938 1.75 -6.765625 C 2.15625 -6.941406 2.648438 -7.03125 3.234375 -7.03125 C 3.648438 -7.03125 4.054688 -6.976562 4.453125 -6.875 C 4.847656 -6.769531 5.1875 -6.617188 5.46875 -6.421875 L 5.140625 -5.625 C 4.847656 -5.8125 4.535156 -5.953125 4.203125 -6.046875 C 3.878906 -6.140625 3.554688 -6.1875 3.234375 -6.1875 C 2.671875 -6.1875 2.25 -6.082031 1.96875 -5.875 C 1.6875 -5.675781 1.546875 -5.414062 1.546875 -5.09375 C 1.546875 -4.851562 1.625 -4.65625 1.78125 -4.5 C 1.945312 -4.351562 2.144531 -4.238281 2.375 -4.15625 C 2.613281 -4.070312 2.9375 -3.984375 3.34375 -3.890625 C 3.863281 -3.765625 4.28125 -3.640625 4.59375 -3.515625 C 4.914062 -3.390625 5.191406 -3.195312 5.421875 -2.9375 C 5.648438 -2.675781 5.765625 -2.328125 5.765625 -1.890625 C 5.765625 -1.523438 5.664062 -1.191406 5.46875 -0.890625 C 5.269531 -0.597656 4.96875 -0.363281 4.5625 -0.1875 C 4.15625 -0.0078125 3.660156 0.078125 3.078125 0.078125 Z M 3.078125 0.078125 "/></g></g></g></svg>